<svg width="80" height="80" viewBox="0 0 80 80" fill="none" xmlns="http://www.w3.org/2000/svg">
<g clip-path="url(#clip0_166_141)">
<path d="M66.744 78.2104C66.744 79.0354 52.0843 79.7036 34.001 79.7036C15.9176 79.7036 1.25793 79.0354 1.25793 78.2104C1.25793 77.3854 15.9176 76.7173 34.001 76.7173C52.0843 76.7173 66.744 77.3854 66.744 78.2104Z" fill="#F3F6FF"/>
<path d="M5.68101 29.9971C2.94763 31.6239 1.76483 34.9403 1.1033 38.0514C-0.355604 44.9174 -0.263939 52.0507 0.770877 58.9929C1.29105 62.4828 2.04866 66.0102 1.57708 69.5078C1.96031 68.6442 2.34353 67.7806 2.72676 66.9169C2.61632 70.419 3.91067 73.9453 6.25971 76.5439C5.03936 72.6587 4.99628 68.4112 6.13712 64.5016C6.29395 65.3233 6.7092 66.0931 7.30888 66.6773C5.71966 62.3845 5.33091 57.6544 6.19565 53.1595C6.37125 54.5389 6.54685 55.9172 6.72245 57.2966C7.25918 50.1743 5.58492 43.0742 5.41264 35.9343C5.38613 34.8332 5.42037 33.6504 6.06534 32.7581C6.69705 31.8834 7.7915 31.4726 8.85172 31.276C9.76395 31.107 12.6961 29.869 10.748 28.8187C9.53313 28.1627 6.71141 29.3853 5.68101 29.9993V29.9971Z" fill="black"/>
<path d="M52.7161 41.2697C52.8718 41.4486 62.9173 51.9966 62.9173 51.9966L62.8511 54.5897L48.9479 65.0505L49.3631 61.585L57.709 52.7299L49.6668 48.2914L52.7161 41.2708V41.2697Z" fill="#727272"/>
<path d="M60.1718 54.1834C59.2662 53.9901 58.545 54.9741 57.6417 55.1795C57.4175 55.2303 57.148 55.2171 57 55.0404C56.8421 54.8504 56.8929 54.5677 56.8244 54.3314C56.7824 54.1867 56.693 54.0641 56.5781 53.9691L49.6216 61.3498L49.2063 64.8154L61.3027 55.7141C61.1834 55.0349 60.8322 54.3236 60.1707 54.1834H60.1718Z" fill="black"/>
<path d="M61.6683 4.22396C61.6352 4.09254 62.6214 1.03005 62.9174 1.00024C63.2133 0.970418 64.6921 6.78836 64.6921 6.78836L61.9311 7.08434L61.6683 4.22506V4.22396Z" fill="#727272"/>
<path d="M14.3395 37.1513C14.2291 38.8996 14.7636 40.6258 15.3754 42.2879C16.5262 45.41 17.984 48.4736 18.5163 51.7271C19.0486 54.9807 18.5241 58.5589 16.1121 61.0482C19.9708 65.9009 20.6412 72.2589 21.1856 78.1928C22.7097 78.195 23.8152 78.1795 25.2631 78.1696C25.1096 73.3478 24.0913 68.6166 22.311 63.7617C21.9543 62.7909 21.5954 61.7738 21.7743 60.7633C21.9068 60.0156 22.3254 59.3375 22.7241 58.6693C25.5237 53.99 27.7524 48.9065 27.9688 43.6087C28.0837 40.7892 27.5723 37.8405 25.7534 35.5345C22.3916 31.2727 14.736 30.821 14.3384 37.1502L14.3395 37.1513Z" fill="#727272"/>
<path d="M56.7979 10.6283C56.7979 10.6283 58.122 4.79706 61.1536 4.45691C63.0708 4.24266 80.0001 14.5477 80.0001 14.5477C80.0001 14.5477 79.9967 16.6406 77.9481 17.8918C75.8696 19.1619 73.3903 16.4539 72.0517 16.4318C69.78 16.3954 68.8402 17.9327 62.628 18.1149C55.3677 18.327 56.7968 10.6283 56.7968 10.6283H56.7979Z" fill="#969696"/>
<path d="M44.2762 27.1633C44.5766 27.0926 49.5398 25.8513 52.3008 21.0206C55.0617 16.1889 57.2153 9.99329 57.2153 9.99329C57.2153 9.99329 63.739 14.1182 63.739 14.5125C63.739 14.9067 58.82 40.7208 58.82 40.7208L44.2762 27.1633V27.1633Z" fill="#969696"/>
<path d="M11.2814 27.5277C11.2814 27.5277 6.64735 32.5571 6.35137 35.1204C6.05539 37.6837 9.8026 48.3334 9.8026 48.3334C9.8026 48.3334 17.001 46.2627 21.2408 47.0512C25.4806 47.8397 34.2572 50.7984 41.8488 51.4886C49.4415 52.1789 55.5554 49.1219 55.5554 49.1219C55.5554 49.1219 57.9221 47.8397 58.5141 43.304C59.106 38.7682 59.7962 30.4853 59.7962 30.4853L51.9529 23.8258C51.9529 23.8258 47.9638 27.5266 37.8078 28.0203C24.7086 28.6564 17.0021 25.161 11.2825 27.5277H11.2814Z" fill="#969696"/>
<path d="M55.5554 46.3775C55.5554 46.3775 49.4415 49.4345 41.8488 48.7442C34.2561 48.054 25.4806 45.0953 21.2408 44.3068C17.001 43.5182 9.80259 45.589 9.80259 45.589C9.80259 45.589 7.36741 38.6666 6.57887 34.64C6.46291 34.9548 6.38339 35.2518 6.35247 35.5213C6.05649 38.0846 9.8037 48.7343 9.8037 48.7343C9.8037 48.7343 17.0021 46.6635 21.2419 47.4521C25.4817 48.2406 34.2583 51.1993 41.8499 51.8895C49.4426 52.5798 55.5565 49.5228 55.5565 49.5228V46.3764L55.5554 46.3775Z" fill="#8C8C8C"/>
<path d="M59.5886 6.49229C59.5886 6.49229 59.8327 1.13488 60.3396 1.00346C60.8465 0.872032 63.2585 5.15045 63.2585 5.15045L59.5975 6.78827L59.5875 6.49229H59.5886Z" fill="#969696"/>
<path d="M21.9543 46.8634C21.9885 46.954 22.12 46.8546 22.1498 46.7618C22.8489 44.5795 22.3508 42.1432 21.2376 40.1399C20.3264 38.4999 18.9007 37.0211 17.0707 36.608C18.2435 38.9681 18.1055 41.7766 17.5058 44.3421C17.3446 45.0312 17.18 45.843 17.6461 46.3742C17.9906 46.7662 18.5605 46.8524 19.0807 46.8943C20.2679 46.9893 21.4628 46.9871 22.6501 46.8888L21.9543 46.8623V46.8634Z" fill="#8C8C8C"/>
<path d="M6.08973 37.1128C5.96935 38.8599 6.49394 40.5894 7.09694 42.2548C8.23115 45.3836 9.67017 48.4549 10.1848 51.7117C10.6995 54.9686 10.1539 58.5435 7.72865 61.0196C11.5598 65.8943 12.1948 72.2556 12.7061 78.1918C14.2302 78.2017 15.3357 78.1918 16.7836 78.1918C16.6566 73.3689 15.6659 68.6321 13.9121 63.7673C13.5609 62.7943 13.2075 61.775 13.392 60.7666C13.5289 60.0201 13.9508 59.3442 14.3539 58.6782C17.1789 54.0144 19.4363 48.9441 19.6826 43.6475C19.814 40.8279 19.3193 37.877 17.5125 35.5611C14.175 31.2805 6.52155 30.7857 6.08863 37.1128H6.08973Z" fill="#969696"/>
<path d="M44.6694 49.1605C44.3105 47.1251 44.5589 44.881 46.4651 43.3149C46.4441 44.4944 46.8749 45.6761 47.6998 46.7065C48.5215 47.7314 49.7308 48.6204 50.2444 49.7381C50.3371 49.9402 50.4034 50.1655 50.2775 50.3577C50.1715 50.52 49.9473 50.6293 49.7253 50.7199C48.8396 51.0832 47.1642 51.5813 46.1161 51.2876C45.0471 50.9883 44.7898 49.843 44.6694 49.1594V49.1605Z" fill="#8C8C8C"/>
<path d="M53.9519 53.0491C52.9138 56.2353 52.2611 59.5109 51.6548 62.7854C50.705 67.9131 49.3278 74.5306 51.6172 78.1928C50.187 78.1277 47.7993 78.258 46.3691 78.1928C45.8677 76.9691 45.6148 75.5632 45.6248 74.2601C45.2338 74.5461 44.8418 74.8321 44.4508 75.1171C45.3663 72.5792 45.9925 69.9629 46.4255 67.3256C46.8628 64.6651 47.1047 61.9825 47.3476 59.3011C47.6889 55.5229 48.018 51.6399 46.7855 48.0131C46.4895 47.1439 46.1041 46.2836 46.0444 45.3769C45.9705 44.2405 46.421 43.1228 47.0307 42.1222C48.3637 39.9366 50.557 38.1276 53.2086 37.359C55.0099 36.8366 57.1668 36.8797 58.3264 38.4037C59.2894 39.6694 58.4976 41.0167 58.0426 42.3398C56.8034 45.9479 55.1325 49.4256 53.9508 53.0502L53.9519 53.0491Z" fill="#969696"/>
<path d="M60.3396 6.45583C60.3396 6.45583 60.3639 2.94497 60.5616 2.84557C60.7604 2.74618 62.587 5.44973 62.587 5.44973L60.3385 6.45583H60.3396Z" fill="#727272"/>
<path d="M13.5543 64.378C12.8718 64.1152 12.5515 63.0859 11.8215 63.14C11.4073 63.1709 11.1147 63.5707 10.9976 63.9683C10.7292 64.8783 10.9645 65.8447 10.7535 66.716C12.0026 70.3782 12.3847 74.3728 12.7138 78.1918C14.2379 78.2017 15.3434 78.1918 16.7913 78.1918C16.6709 73.6019 15.7653 69.0894 14.1672 64.4708C13.9585 64.4586 13.7487 64.452 13.5554 64.3769L13.5543 64.378Z" fill="#444444"/>
<path d="M51.6161 78.1917C49.5288 74.852 50.4907 69.0528 51.3963 64.1681C51.3621 64.1924 51.3279 64.2178 51.2958 64.2432C50.3218 65.0439 49.869 66.2985 49.1677 67.3465C48.8319 67.849 48.2013 68.356 47.6889 68.0379C47.1168 67.6569 47.0936 66.7645 46.5403 66.5867C46.5028 66.833 46.4663 67.0793 46.4255 67.3244C45.9925 69.9617 45.3663 72.578 44.4508 75.1159C44.8418 74.8299 45.2338 74.5439 45.6248 74.2589C45.6137 75.5621 45.8666 76.968 46.368 78.1917C47.7982 78.2568 50.1859 78.1265 51.6161 78.1917V78.1917Z" fill="#444444"/>
<path d="M22.4711 64.1074C22.3485 64.0942 22.2237 64.1041 22.1045 64.1428C21.877 64.2168 21.6914 64.3824 21.475 64.4829C21.0995 64.6563 20.6323 64.6088 20.2999 64.3648C19.8294 64.0202 19.6726 63.373 19.2286 62.9953C18.8211 62.6485 17.9299 62.5094 17.3357 62.7479C20.1552 67.3323 20.7394 72.9293 21.2221 78.1929C22.7461 78.1951 23.8516 78.1796 25.2995 78.1697C25.1493 73.4628 24.173 68.8409 22.4711 64.1074V64.1074Z" fill="black"/>
<path d="M56.9646 7.00914C56.2511 8.13342 55.8116 9.40457 55.3621 10.6581C54.3052 13.6068 53.055 16.6726 50.5823 18.5953C49.3951 19.5197 47.9638 20.1437 46.9488 21.2547C45.5915 22.7401 45.0879 24.982 43.4015 26.0787C42.3457 26.7656 41.0083 26.8672 39.8896 27.4459C39.6135 27.5884 39.3473 27.7651 39.1562 28.0103C38.9541 28.2709 38.8503 28.5934 38.7874 28.917C38.3357 31.2428 39.9691 33.5819 42.0729 34.6709C41.4401 34.1695 41.1905 33.2374 41.4887 32.4864C43.0448 33.5886 43.4236 35.698 43.6754 37.5887C45.3563 34.9304 47.0361 32.2721 48.717 29.6128C48.6209 30.4797 48.5259 31.3466 48.4298 32.2125C51.6304 29.5498 54.1031 26.0213 55.5156 22.1051C56.0236 24.3514 53.9109 26.5569 54.3593 28.8165C54.314 27.8711 54.9248 27.0384 55.4858 26.2764C56.5791 24.7943 57.6073 23.2194 58.0955 21.4447C58.8984 18.5224 58.1816 15.2634 59.4086 12.4914C59.8603 11.4709 60.5804 10.4626 60.4291 9.35708C60.3396 8.71101 59.9564 8.17097 59.7664 7.55803C59.5809 6.95724 59.7432 6.25374 59.4539 5.68829C58.7515 4.31222 57.4019 6.3189 56.9635 7.00914H56.9646Z" fill="black"/>
<path d="M59.3335 15.2159C59.3335 15.3065 59.9685 17.1221 61.0575 17.6357C62.1464 18.1503 63.0962 18.0984 63.0962 18.0984L62.4788 21.4017C62.4788 21.4017 61.4208 20.8428 60.301 18.9665C59.1811 17.0912 59.3324 15.2148 59.3324 15.2148L59.3335 15.2159Z" fill="#8C8C8C"/>
<path d="M63.2585 8.61279L66.4469 9.59902L65.6253 9.82873C65.6253 9.82873 64.7053 10.3213 64.2448 10.0916C63.7842 9.86186 63.8174 9.38256 63.8174 9.38256L63.2585 9.13848V8.61279Z" fill="#231F20"/>
<path d="M77.6985 15.6919C77.6146 15.7328 77.4964 15.7394 77.4423 15.6632C77.4246 15.6378 77.4158 15.6069 77.4114 15.576C77.3683 15.2899 77.5914 15.0403 77.7979 14.8371C77.894 14.7433 77.989 14.6483 78.0895 14.561C78.1458 14.8857 78.0354 15.5274 77.6985 15.693V15.6919Z" fill="#231F20"/>
<path d="M12.4719 75.645C12.4841 75.7036 12.5305 78.1962 12.5305 78.1962L17.1446 78.1917L16.6355 75.645H12.4719V75.645Z" fill="black"/>
<path d="M45.7075 75.6372L50.505 74.8354L52.0743 78.2105L46.3679 78.1917L45.7075 75.6372Z" fill="black"/>
</g>
<defs>
<clipPath id="clip0_166_141">
<rect width="80" height="80" fill="white"/>
</clipPath>
</defs>
</svg>
