<svg width="80" height="80" viewBox="0 0 80 80" fill="none" xmlns="http://www.w3.org/2000/svg">
<g clipPath="url(#clip0_166_168)">
<path d="M32.4558 74.4638C50.3807 74.4638 64.9117 73.6885 64.9117 72.7321C64.9117 71.7758 50.3807 71.0005 32.4558 71.0005C14.531 71.0005 0 71.7758 0 72.7321C0 73.6885 14.531 74.4638 32.4558 74.4638Z" fill="#F3F6FF"/>
<path d="M3.18007 40.0178C3.09249 41.9478 3.56322 43.8777 3.39682 45.8022C3.19868 48.0967 2.10178 50.296 2.26052 52.5938C2.38969 54.4668 3.34318 56.1986 3.54789 58.064C3.73946 59.8177 3.25998 61.5682 3.14175 63.3285C2.96551 65.9503 3.61686 68.6225 4.97977 70.8699C4.90533 69.9449 5.05311 69.0023 5.40561 68.1441C5.98799 69.2902 6.28466 70.5798 6.25948 71.865C7.722 70.2601 8.70286 68.2229 9.0466 66.0784C9.41661 67.2825 9.54469 68.5601 9.42318 69.8135C10.0088 68.7374 10.4861 67.6022 10.8463 66.4308C11.0466 67.0417 11.1692 67.6777 11.2108 68.3192C12.126 66.1955 13.0587 63.9875 13.004 61.6754C12.9591 59.7904 12.2585 57.9808 12.0735 56.1045C11.7527 52.8696 12.9733 49.6578 12.877 46.4087C12.773 42.9111 11.1627 39.3292 12.3296 36.0298C12.6602 35.096 13.2032 34.2356 13.4024 33.2646C14.2946 28.9021 9.13527 31.12 7.41877 32.3844C5.00604 34.1622 3.31691 36.9942 3.18007 40.0156V40.0178Z" fill="#EADECE"/>
<path d="M15.0346 38.968C14.9153 40.378 15.4353 41.7737 16.033 43.118C17.1573 45.6435 17.6138 48.1526 18.1239 50.7809C18.634 53.4093 17.5481 56.3869 16.6592 58.2644C20.4567 62.1987 21.0862 67.3329 21.593 72.1244C23.1037 72.1332 24.1995 72.1244 25.6347 72.1244C25.5099 68.2317 23.3588 59.0471 23.6839 58.2775C24.5706 56.1789 28.2664 48.5182 28.5105 44.2423C28.6407 41.9664 28.1503 39.5843 26.3594 37.7156C23.0512 34.2607 15.466 33.8612 15.0357 38.968H15.0346Z" fill="#7A513F"/>
<path d="M57.75 49.6633C56.721 52.2347 55.4654 56.792 54.8644 59.4346C53.9229 63.5726 52.5579 68.9148 54.8272 71.8705C53.4095 71.8179 51.0428 71.923 49.6251 71.8705C49.1281 70.882 48.8764 69.7478 48.8873 68.6958C48.4987 68.9268 48.1112 69.1567 47.7236 69.3877C48.6311 67.3395 49.2518 65.2278 49.681 63.0986C50.1145 60.9508 50.3553 58.7855 50.595 56.6223C50.9333 53.5725 51.2595 50.4383 50.0378 47.5111C49.7445 46.8094 49.3624 46.1153 49.3033 45.383C49.2299 44.4656 49.6766 43.5636 50.2809 42.7557C51.6022 40.9921 53.7763 39.5318 56.4046 38.9111C58.1901 38.4896 58.9203 46.736 57.75 49.6622V49.6633Z" fill="#7A513F"/>
<path d="M62.824 8.77927C62.7912 8.61944 64.0829 5.23242 64.8262 5.23242C65.1218 5.23242 67.5488 11.9375 67.5488 11.9375L62.0895 11.4383L62.824 8.78036V8.77927Z" fill="#7A513F"/>
<path d="M57.4151 12.9633C57.4151 12.9633 59.0703 8.58446 61.3189 8.24839C63.216 7.96486 80 20.5025 80 20.5025C80 20.5025 79.9967 23.0433 77.966 24.5639C75.9058 26.1063 72.9808 23.9136 71.654 23.8874C69.4022 23.8425 68.9391 24.6142 62.7814 24.8354C55.5848 25.0937 57.0013 15.7438 57.0013 15.7438L57.4151 12.9644V12.9633Z" fill="#AF6C3E"/>
<path d="M44.5895 29.9827C44.8872 29.9126 49.8068 28.6821 52.5436 23.8939C55.2804 19.1046 57.415 12.9633 57.415 12.9633C57.415 12.9633 69.4338 19.3388 66.6576 18.3908C66.2876 18.2649 58.096 49.2254 58.096 49.2254L44.5895 29.9837V29.9827Z" fill="#AF6C3E"/>
<path d="M12.126 30.1019C12.126 30.1019 7.53262 35.0872 7.23924 37.6281C6.94586 40.1689 12.2114 49.7464 12.2114 49.7464C12.2114 49.7464 17.7944 48.6725 21.9981 49.4542C26.2006 50.2358 34.9003 53.1685 42.4264 53.8527C49.9525 54.5369 55.4041 52.3551 55.4041 52.3551C55.4041 52.3551 58.0697 51.7509 58.6565 47.2549C59.2432 42.7589 60.2153 33.0336 60.2153 33.0336L52.4407 26.4325C52.4407 26.4325 48.8829 28.6263 38.816 29.1145C25.8317 29.7451 17.8666 26.2212 12.1271 30.1009L12.126 30.1019Z" fill="#AF6C3E"/>
<path d="M55.7687 49.0283C55.7687 49.0283 49.7084 52.0585 42.1823 51.3743C34.6562 50.6901 25.9576 47.7574 21.7551 46.9758C17.5525 46.1941 10.4172 48.2467 10.4172 48.2467C10.4172 48.2467 8.00337 41.3851 7.22175 37.3938C7.10681 37.7058 7.02799 38.0003 6.99624 38.2674C6.70286 40.8082 10.4172 51.3644 10.4172 51.3644C10.4172 51.3644 17.7791 49.9982 21.9817 50.781C26.1842 51.5626 34.8861 55.5659 42.4122 56.2501C49.9383 56.9343 55.7687 52.1471 55.7687 52.1471V49.0283Z" fill="#8C6246"/>
<path d="M22.4633 49.5099C22.4973 49.5997 22.6276 49.5012 22.6571 49.4103C23.3501 47.2472 22.8563 44.8322 21.7529 42.8465C20.8498 41.2208 19.4365 39.755 17.6226 39.3456C18.7851 41.685 18.6483 44.4688 18.0539 47.0118C17.894 47.6949 17.7309 48.4995 18.1929 49.0261C18.5344 49.4147 19.0993 49.5001 19.6149 49.5406C20.7917 49.6347 21.9762 49.6325 23.153 49.5351L22.4633 49.5088V49.5099Z" fill="#8C6246"/>
<path d="M6.81991 38.7249C6.70168 40.1349 7.22057 41.5307 7.81828 42.875C8.94254 45.4005 9.39904 47.9095 9.90917 50.5379C10.4193 53.1663 9.33335 56.1439 8.44445 58.0213C12.242 61.9557 12.8714 67.0899 13.3783 71.8814C14.889 71.8901 15.9848 71.8814 17.4199 71.8814C17.2941 67.9886 15.1441 58.8029 15.4692 58.0344C16.3559 55.9359 20.0505 48.2751 20.2946 43.9992C20.4249 41.7233 19.9345 39.3413 18.1435 37.4726C14.8353 34.0177 7.24903 33.6181 6.81991 38.7249V38.7249Z" fill="#AF6C3E"/>
<path d="M44.9792 51.787C44.6234 49.7694 44.8697 47.545 46.7592 45.9927C46.7384 47.1618 47.1653 48.3332 47.9831 49.3545C48.7975 50.3715 49.9962 51.2516 50.5053 52.3595C50.5972 52.5598 50.6629 52.7831 50.5381 52.9736C50.433 53.1345 50.2108 53.2429 49.9908 53.3327C49.1128 53.6928 47.4532 54.1865 46.4133 53.8954C45.3536 53.5987 45.0985 52.4635 44.9792 51.7859V51.787Z" fill="#8C6246"/>
<path d="M57.1305 51.1488C56.1014 53.7202 52.7462 56.804 52.1452 59.4466C51.2037 63.5846 49.8386 68.9268 52.1079 71.8825C50.6903 71.8299 48.3235 71.935 46.9059 71.8825C46.4089 70.894 46.1571 69.7599 46.1681 68.7078C45.7805 68.9388 45.3919 69.1687 45.0044 69.3997C45.9119 67.3515 46.5326 65.2398 46.9617 63.1106C47.3952 60.9628 47.635 58.7975 47.8758 56.6343C48.2141 53.5856 48.5414 50.4503 47.3186 47.5231C47.0252 46.8214 46.6432 46.1273 46.5841 45.395C46.5107 44.4776 46.9574 43.5756 47.5616 42.7677C48.8829 41.0041 51.0581 39.5438 53.6854 38.9231C55.4709 38.5016 57.6088 38.5367 58.7583 39.766C59.7129 40.7874 58.928 41.8744 58.4769 42.9428C57.2487 45.8548 58.3007 48.2226 57.1294 51.1477L57.1305 51.1488Z" fill="#AF6C3E"/>
<path d="M64.7178 24.7368C64.7178 24.7368 62.4649 24.8616 61.1611 23.4429C59.8573 22.0242 59.3198 19.5687 59.3198 19.5687C59.3198 19.5687 58.4375 22.8342 59.7796 25.1134C61.1217 27.3926 63.4337 29.3729 63.4337 29.3729L64.7178 24.7368Z" fill="#8C6246"/>
<path d="M64.0731 14.1565L67.1284 15.4242L66.2964 15.5752C66.2964 15.5752 65.3429 15.977 64.9094 15.7066C64.477 15.4373 64.5536 14.9677 64.5536 14.9677L64.0249 14.6754L64.0731 14.1565Z" fill="#231F20"/>
<path d="M77.6694 22.4795C77.5829 22.5124 77.4657 22.5069 77.4198 22.427C77.4044 22.3996 77.399 22.369 77.3968 22.3372C77.3804 22.0515 77.6245 21.8249 77.8467 21.6443C77.9496 21.56 78.0525 21.4757 78.1598 21.399C78.1861 21.7253 78.0175 22.3471 77.6694 22.4795Z" fill="#231F20"/>
<path d="M57.3899 10.5811C57.0013 11.6572 56.9137 12.8286 56.477 13.8861C55.715 15.7317 53.9909 17.0082 53.0144 18.7498C52.1375 20.3142 51.8901 22.208 50.8042 23.6355C49.9459 24.7642 48.6597 25.4713 47.5803 26.3898C44.7932 28.7598 43.4719 32.5004 43.2595 36.1535C43.0471 39.8054 43.8189 43.4355 44.5852 47.0119C44.4155 45.7015 44.445 44.3649 44.6706 43.0622C45.277 46.1569 46.0192 49.2254 46.8939 52.2555C47.5639 46.1843 48.6137 40.1535 50.0357 34.2126C50.0401 35.9991 50.3784 37.7846 51.0297 39.4485C50.8589 36.4578 51.3198 33.432 52.3751 30.6274C52.8568 32.2257 53.1042 33.894 53.1075 35.5634C53.5037 32.8628 53.9964 30.1775 54.5842 27.5119C54.9126 29.8753 55.8694 32.149 57.3297 34.0363C55.8946 29.6038 55.923 24.7105 57.4107 20.2945C57.5027 20.9283 57.5947 21.5621 57.6866 22.1971C57.8125 20.5025 58.0621 18.8177 58.4332 17.1603C58.5646 17.5708 58.697 17.9814 58.8295 18.3919C59.1918 15.7821 59.6998 13.0256 60.0501 10.4137C60.1694 9.52475 60.2854 7.78088 60.2854 7.78088C59.4381 7.85423 57.6341 9.90242 57.3899 10.58V10.5811Z" fill="#EADECE"/>
<path d="M65.1854 15.5478C65.4098 15.1833 65.5816 14.7859 65.6922 14.3732C66.6085 16.0963 66.6468 18.1346 66.6643 20.0854C67.4153 18.2441 67.817 16.1872 67.3299 14.2594C68.2899 15.4614 68.6293 17.029 68.9413 18.5353C69.1624 17.5512 69.2631 16.5407 69.2391 15.5325C69.3255 15.8336 69.4361 16.128 69.5697 16.4116C69.6605 16.0864 69.7514 15.7613 69.8422 15.4373C70.8417 16.3689 71.2774 17.7427 71.631 19.063C71.9386 17.6672 71.9901 16.2156 71.781 14.8013C72.14 15.3191 72.4586 15.8664 72.7323 16.4346C72.7432 15.7953 72.5286 15.1746 72.2845 14.5834C71.689 13.1428 70.845 11.7295 69.5237 10.903C69.2007 10.7005 68.8472 10.5308 68.5965 10.2451C68.4038 10.0262 68.2867 9.75248 68.1279 9.50726C67.8225 9.03654 67.3737 8.67857 66.9194 8.34906C66.2045 7.83236 65.3747 7.34522 64.4979 7.44593C64.303 7.46783 64.1038 7.52366 63.956 7.65393C63.6002 7.96701 63.1722 8.00642 63.3528 8.28886C63.5061 8.5275 63.7874 8.99056 63.9407 9.21607C64.4191 9.92216 64.7759 10.5746 64.9555 11.2894C65.1317 11.989 65.2401 12.7049 65.2784 13.4252C65.2981 13.7854 65.3003 14.1466 65.2839 14.5068C65.2729 14.7662 65.3244 15.3267 65.1875 15.5489L65.1854 15.5478Z" fill="#EADECE"/>
<path d="M60.0731 11.4033C60.0731 11.4033 60.2953 5.16345 60.7989 5.00363C61.3013 4.8438 64.4366 10.0207 64.4366 10.0207L60.0577 11.4493L60.0731 11.4022V11.4033Z" fill="#AF6C3E"/>
<path d="M60.512 10.6753C60.512 10.6753 60.9214 6.40919 61.1184 6.28768C61.3155 6.16726 63.217 9.70206 63.217 9.70206L60.5131 10.6753H60.512Z" fill="#8C6246"/>
<path d="M13.1945 70.2196L13.293 72.1288H17.6773L17.1803 69.3384L13.1945 70.2196Z" fill="black"/>
<path d="M21.3303 69.8244C21.3391 69.889 21.4442 72.1288 21.4442 72.1288H26.0485L25.3446 69.2015L21.3314 69.8255L21.3303 69.8244Z" fill="black"/>
<path d="M46.202 69.4457L46.6213 71.8967L54.9695 71.8858L53.6416 68.5206L46.202 69.4457Z" fill="black"/>
</g>
<defs>
<clipPath id="clip0_166_168">
<rect width="80" height="80" fill="white"/>
</clipPath>
</defs>
</svg>
