<svg width="24" height="24" viewBox="0 0 24 24" fill="none" xmlns="http://www.w3.org/2000/svg">
<g clip-path="url(#clip0_168_16918)">
<path d="M2.39046 0C6.12376 0 9.85767 0 13.591 0C13.6116 0.0106447 13.631 0.0262986 13.6529 0.0313079C15.1787 0.366928 15.992 1.37629 15.9926 2.93793C15.9926 4.85961 15.9926 6.78066 15.9926 8.70234V8.99977C15.8843 8.99977 15.8004 8.99977 15.7159 8.99977C14.1225 8.99977 12.5298 8.98912 10.9364 9.00352C9.11014 9.0198 7.71148 10.7348 8.04706 12.5219C8.3194 13.9715 9.53211 14.9927 11.0034 14.9977C12.5811 15.0034 14.1582 14.999 15.7359 14.999C15.8179 14.999 15.8999 14.999 15.9776 14.999C15.9851 15.0591 15.9907 15.0823 15.9907 15.1054C15.9907 17.183 16.0076 19.2606 15.9838 21.3382C15.9669 22.8147 14.7436 23.9925 13.2591 23.9956C9.75249 24.0025 6.24584 24.0025 2.73981 23.9944C1.832 23.9925 1.102 23.6018 0.544792 22.8848C0.249911 22.506 0.117183 22.0608 0.000732422 21.6075V2.39067C0.0163843 2.33995 0.0364188 2.29049 0.0476881 2.23851C0.251789 1.2999 0.78458 0.622401 1.66296 0.231678C1.89399 0.128988 2.14692 0.0757651 2.39046 0Z" fill="#B5C5F4"/>
<path d="M17.9958 12.9946C17.8762 12.9946 17.7842 12.9946 17.6921 12.9946C15.4909 12.9946 13.2896 12.9952 11.0883 12.994C10.4823 12.994 10.0828 12.6646 10.0058 12.113C9.9313 11.5789 10.3426 11.0592 10.8817 11.0109C10.9825 11.0022 11.0845 11.0034 11.186 11.0034C13.3559 11.0034 15.5265 11.0034 17.6965 11.0034H17.9958V10.7273C17.9958 9.84504 17.9945 8.96278 17.9958 8.08052C17.9964 7.594 18.2174 7.23333 18.6212 7.07742C19.0551 6.91023 19.4295 7.02044 19.7526 7.34416C21.0548 8.64782 22.3589 9.94835 23.6599 11.2539C24.1132 11.7091 24.1126 12.2908 23.6574 12.7473C22.3627 14.0466 21.0629 15.3414 19.7676 16.6407C19.4383 16.9707 19.0614 17.0922 18.6175 16.92C18.2099 16.7616 17.9958 16.399 17.9958 15.8912C17.9952 14.9388 17.9958 13.9871 17.9958 12.9959V12.9946Z" fill="#B5C5F4"/>
</g>
<defs>
<clipPath id="clip0_168_16918">
<rect width="24" height="24" fill="white"/>
</clipPath>
</defs>
</svg>
