<svg width="24" height="24" viewBox="0 0 24 24" fill="none" xmlns="http://www.w3.org/2000/svg">
<g clip-path="url(#clip0_168_16913)">
<path d="M21.6526 16.3861C21.6503 16.3746 21.6565 16.3612 21.665 16.3163C22.5676 16.5979 23.2433 17.2386 24.0004 17.8215C23.9772 17.6783 23.9614 17.5614 23.9394 17.4456C23.7226 16.3175 23.2302 15.3124 22.6181 14.3648C21.4288 12.5242 19.913 10.9973 18.2579 9.60681C18.1741 9.53663 18.09 9.46685 18.0063 9.39706C18.0125 9.38081 18.0182 9.36416 18.0244 9.3479C18.861 9.38755 19.6332 9.69483 20.4116 9.97793C20.0068 9.02713 17.5324 7.06724 15.777 6.32302C13.9108 5.5324 11.9689 5.24811 9.96461 5.44319C9.49111 4.23545 8.52946 3.45435 7.63611 2.61616C7.40149 2.3961 7.14757 2.19785 6.89095 2C7.37216 2.59078 7.20468 3.29496 7.26179 3.95751C6.88284 3.5848 6.51663 3.22439 6.15003 2.86397C6.3916 4.27273 6.03426 5.57126 5.69004 6.87098C5.67229 6.93798 5.64103 7.01372 5.59241 7.05773C4.81792 7.75596 4.26107 8.62944 3.72197 9.51482C2.9305 10.8149 2.24129 12.1725 1.59492 13.5539C1.53742 13.6769 1.4587 13.7926 1.37303 13.8973C1.17892 14.1352 0.972854 14.3628 0.77489 14.5971C0.084523 15.4123 -0.121931 16.3604 0.066 17.4063C0.153984 17.8956 0.396327 18.281 0.827758 18.5431C1.3136 18.8381 1.80446 19.1041 2.38369 19.1311C2.91468 19.1557 3.37158 18.9669 3.68917 18.5379C3.91106 18.2386 4.05346 17.877 4.23637 17.5463C4.26609 17.4928 4.3205 17.4174 4.36642 17.415C5.59743 17.3552 6.65401 16.8306 7.6172 16.0935C8.09494 15.7279 8.52174 15.2926 8.97093 14.8878C9.01839 14.8449 9.06084 14.7962 9.13493 14.7204C9.35412 14.933 9.58411 15.1241 9.77745 15.3489C10.4223 16.0979 10.65 16.9963 10.6075 17.9753C10.545 19.4138 10.0179 20.6965 9.31746 21.9157C9.16464 22.1821 8.1752 23.9084 8 24.1582H20.5559C20.628 23.9778 21.5222 22.3265 21.5878 22.1397C22.245 20.2714 22.2882 18.3651 21.6742 16.4619C21.6661 16.4369 21.6576 16.4119 21.6526 16.3861Z" fill="#B5C5F4"/>
</g>
<defs>
<clipPath id="clip0_168_16913">
<rect width="24" height="24" fill="white"/>
</clipPath>
</defs>
</svg>
