<svg width="34" height="34" viewBox="0 0 34 34" fill="none" xmlns="http://www.w3.org/2000/svg">
<path d="M27.5319 0.00476658C27.1975 0.886583 26.9634 1.49194 26.6959 2.19263C28.3919 1.38707 29.4716 1.5396 29.9111 1.5825C29.3091 2.57872 28.7788 3.36044 28.368 4.18506C28.2342 4.45675 28.2724 4.97631 28.4779 5.18127C29.6674 6.37768 30.1261 7.74092 30.2933 9.33773C30.5035 11.3397 31.1293 13.3083 31.4398 15.3055C31.5784 16.2016 31.5641 17.1835 31.3013 18.0463C30.9048 19.3475 29.1801 20.0578 27.8425 19.6288C26.9682 19.3475 26.4236 18.8375 26.5717 17.9033C26.8201 16.3446 26.2277 15.3007 24.6846 14.5524C24.0062 14.2235 23.2514 13.9899 22.6399 13.58C22.0045 13.151 21.5029 12.5647 20.9009 12.007C20.3515 12.5361 20.3372 13.2988 20.92 14.0376C21.4312 14.6811 22.0141 15.2912 22.6447 15.8393C26.1752 18.9328 26.8774 22.5936 25.4108 26.7119C24.398 29.5575 22.7211 31.9885 19.9502 34C20.2846 31.7216 18.9709 30.2868 17.3991 29.0142C15.0247 27.0837 12.4784 25.3153 10.2091 23.2895C6.10057 19.624 5.14509 14.9337 7.31881 10.3101C9.6024 5.47203 14.9579 1.99243 20.3133 2.16879C22.0618 2.22599 23.4903 1.97336 24.8996 1.10108C25.6114 0.662554 26.3615 0.295528 27.5319 0V0.00476658Z" fill="#00062B"/>
<path d="M5.2167 10.8011H12.7459C12.7459 11.9785 11.7856 12.9366 10.6056 12.9366H3.07166C3.07166 11.7592 4.03191 10.8011 5.21193 10.8011H5.2167Z" fill="#D9A25F"/>
<path d="M5.14027 15.5916H14.6568C14.6568 16.7689 13.6966 17.727 12.5166 17.727H3C3 16.5496 3.96026 15.5916 5.14027 15.5916Z" fill="#D9A25F"/>
<path d="M5.2167 20.3819H18.001C18.001 21.5593 17.0407 22.5174 15.8607 22.5174H3.07166C3.07166 21.34 4.03191 20.3819 5.21193 20.3819H5.2167Z" fill="#D9A25F"/>
</svg>
