<svg width="24" height="24" viewBox="0 0 24 24" fill="none" xmlns="http://www.w3.org/2000/svg">
<g clip-path="url(#clip0_168_16915)">
<path d="M18.9508 23.0009H18.9178C18.4068 22.9929 17.9208 22.7759 17.5738 22.4009L15.6558 20.5199C15.2718 20.1229 15.2808 19.4899 15.6778 19.1059C15.6788 19.1049 15.6798 19.1039 15.6808 19.1029C16.0778 18.7219 16.7078 18.7329 17.0908 19.1269L18.9518 20.9499L22.2928 17.6089C22.6828 17.2189 23.3168 17.2189 23.7068 17.6089C24.0968 17.9989 24.0968 18.6329 23.7068 19.0229L20.2858 22.4439C19.9338 22.8009 19.4528 23.0019 18.9508 23.0009V23.0009Z" fill="#B5C5F4"/>
<path d="M14.0352 20.015C14.0312 16.718 16.7002 14.042 19.9962 14.037C21.2792 14.035 22.5292 14.447 23.5592 15.212C25.3322 8.82703 21.5932 2.21403 15.2092 0.441034C8.82523 -1.33197 2.21323 2.40603 0.440231 8.79103C-1.33277 15.176 2.40623 21.79 8.79023 23.563C10.8902 24.146 13.1092 24.146 15.2092 23.563C14.4472 22.537 14.0352 21.293 14.0352 20.015ZM13.0002 12.022C13.0002 12.288 12.8942 12.542 12.7062 12.73L9.70123 15.736C9.30323 16.12 8.66923 16.109 8.28523 15.711C7.91023 15.323 7.91023 14.707 8.28523 14.319L10.9972 11.607V7.01303C10.9972 6.46003 11.4452 6.01103 11.9992 6.01103C12.5522 6.01103 13.0002 6.46003 13.0002 7.01303V12.022Z" fill="#B5C5F4"/>
</g>
<defs>
<clipPath id="clip0_168_16915">
<rect width="24" height="24" fill="white"/>
</clipPath>
</defs>
</svg>
