<svg width="24" height="25" viewBox="0 0 24 25" fill="none" xmlns="http://www.w3.org/2000/svg">
<path d="M11.0095 13.1464H11.3837C14.4096 13.1464 17.4354 13.1464 20.4613 13.1464C21.0602 13.1464 21.1668 13.2551 21.1525 13.8476C21.0273 19.0221 17.1042 23.3881 11.9847 24.0507C6.24633 24.7934 1.04101 20.9017 0.129452 15.1863C-0.777811 9.50228 3.18395 4.04439 8.87367 3.15144C9.38311 3.0713 9.90185 3.03696 10.417 3.00762C10.8656 2.98186 11.008 3.13498 11.0087 3.59004C11.0095 6.6424 11.0087 9.69547 11.0087 12.7478C11.0087 12.863 11.0087 12.9789 11.0087 13.1464H11.0095Z" fill="#B5C5F4"/>
<path d="M18.5402 11.1581C16.9075 11.1581 15.2747 11.1581 13.6426 11.1581C13.1124 11.1581 13.0029 11.0465 13.0029 10.5128C13.0029 7.27436 13.0029 4.03598 13.0029 0.796873C13.0029 0.264536 13.1188 0.150055 13.6455 0.158641C18.6733 0.237346 23.0322 3.98947 23.8422 8.94865C23.9309 9.49244 23.9631 10.0462 23.9974 10.5972C24.0225 11.005 23.8715 11.141 23.4644 11.141C21.823 11.141 20.1816 11.141 18.541 11.141C18.541 11.1467 18.541 11.1524 18.541 11.1581H18.5402Z" fill="#B5C5F4"/>
</svg>
