<svg width="222" height="39" viewBox="0 0 222 39" fill="none" xmlns="http://www.w3.org/2000/svg">
<path d="M41.7485 30.1214V29.792L42.344 29.5597C42.7825 29.3869 43.0856 29.1654 43.2534 28.9008C43.4158 28.6361 43.5024 28.2851 43.5024 27.8476V10.6508C43.5024 10.1917 43.4212 9.82445 43.2534 9.5652C43.0856 9.30056 42.7879 9.09532 42.344 8.93869L41.7485 8.70645V8.37698H51.2271C53.9121 8.37698 55.8501 8.86847 57.041 9.84065C58.2319 10.8182 58.8219 12.0551 58.8219 13.5457C58.8219 14.6637 58.3889 15.6845 57.5173 16.5919C56.6458 17.5047 55.1572 18.1474 53.0406 18.5201C55.4603 18.7847 57.2359 19.4166 58.3564 20.4158C59.4769 21.415 60.0399 22.6302 60.0399 24.0561C60.0399 24.7582 59.8829 25.4657 59.5798 26.1787C59.2712 26.8916 58.7461 27.5451 58.0099 28.1392C57.2737 28.7334 56.2669 29.2086 54.9894 29.5705C53.7118 29.9324 52.0933 30.116 50.1337 30.116H41.7485V30.1214ZM48.3852 18.4931H49.8035C51.2759 18.4931 52.3423 18.1528 52.9919 17.4723C53.6414 16.7917 53.9662 15.6035 53.9662 13.913C53.9662 12.2225 53.6685 10.9047 53.0731 10.1593C52.4776 9.41398 51.5086 9.04131 50.1661 9.04131H48.3852V18.4985V18.4931ZM48.3852 29.4625H50.0362C51.6873 29.4625 52.9161 29.025 53.7172 28.1446C54.5184 27.2643 54.9244 25.8924 54.9244 24.0291C54.9244 22.2738 54.54 21.0207 53.766 20.2754C52.9973 19.53 51.7306 19.1574 49.9659 19.1574H48.3798V29.4679L48.3852 29.4625Z" fill="#00062B"/>
<path d="M61.1983 30.1214V29.792L61.5935 29.6623C62.3838 29.3977 62.7844 28.8522 62.7844 28.015V10.3862C62.7844 9.94867 62.6978 9.61381 62.5192 9.38157C62.3405 9.14933 62.0374 8.9819 61.5935 8.86847L61.1659 8.77126V8.4418L67.2071 7.02673L67.6022 7.32379L67.4723 11.9362V23.2027C67.4723 24.0129 67.4723 24.823 67.4885 25.6224C67.4994 26.4271 67.5048 27.2211 67.5048 28.0096C67.5048 28.4471 67.5914 28.8036 67.77 29.079C67.9487 29.3545 68.241 29.5543 68.6632 29.6893L69.0909 29.7866V30.116H61.1983V30.1214Z" fill="#00062B"/>
<path d="M75.0346 30.6183C73.7571 30.6183 72.6853 30.2564 71.8137 29.5327C70.9422 28.809 70.5092 27.7666 70.5092 26.4055C70.5092 25.3739 71.0397 24.4234 72.0952 23.5538C73.1508 22.6842 74.8127 22.0307 77.0808 21.5932C77.4327 21.5284 77.8279 21.4582 78.2718 21.3772C78.7102 21.3016 79.1758 21.2206 79.6575 21.1287V18.5255C79.6575 17.0348 79.4735 15.9816 79.1108 15.3767C78.7481 14.7718 78.1797 14.4693 77.4111 14.4693C76.8806 14.4693 76.4637 14.6421 76.1552 14.9824C75.8466 15.3227 75.6463 15.9114 75.5597 16.7431L75.4948 17.105C75.4515 18.0502 75.2187 18.7415 74.8019 19.179C74.385 19.6165 73.8654 19.8379 73.2483 19.8379C72.6745 19.8379 72.2035 19.6651 71.83 19.3086C71.4565 18.9575 71.267 18.4823 71.267 17.8935C71.267 16.9916 71.581 16.2354 72.2089 15.6197C72.8369 15.004 73.6651 14.5449 74.7044 14.2371C75.7384 13.9292 76.8589 13.778 78.0715 13.778C80.0311 13.778 81.5414 14.2533 82.6132 15.2092C83.6796 16.1652 84.2155 17.7207 84.2155 19.8703V27.1509C84.2155 28.1392 84.6756 28.6361 85.6013 28.6361H86.3267L86.6244 28.9008C86.2076 29.4301 85.7475 29.8352 85.2549 30.1214C84.7622 30.4077 84.0585 30.5481 83.1599 30.5481C82.191 30.5481 81.4277 30.3212 80.8647 29.873C80.3017 29.4247 79.9336 28.8252 79.7604 28.0798C79.1 28.782 78.4233 29.3815 77.7304 29.873C77.0375 30.3699 76.1389 30.6129 75.04 30.6129L75.0346 30.6183ZM77.0484 28.6091C77.4868 28.6091 77.9037 28.5065 78.288 28.2959C78.6723 28.0852 79.1325 27.7612 79.6575 27.3237V21.7877C79.4356 21.8309 79.2191 21.8741 78.9971 21.9173C78.7752 21.9605 78.5208 22.0037 78.2393 22.0469C77.227 22.3116 76.415 22.7544 75.8141 23.381C75.2079 24.0075 74.9047 24.8446 74.9047 25.9032C74.9047 26.8052 75.1158 27.4803 75.5327 27.9286C75.9495 28.3769 76.4583 28.6037 77.0538 28.6037L77.0484 28.6091Z" fill="#00062B"/>
<path d="M95.5021 30.6183C94.0027 30.6183 92.6439 30.2942 91.4259 29.6461C90.2026 28.998 89.2336 28.0528 88.519 26.8106C87.8045 25.5684 87.4472 24.0507 87.4472 22.2468C87.4472 20.4428 87.837 18.9467 88.6219 17.6829C89.4014 16.4191 90.4516 15.4523 91.7562 14.7826C93.0662 14.1128 94.5007 13.778 96.0651 13.778C97.3426 13.778 98.4199 13.9886 99.3022 14.4045C100.185 14.8204 100.856 15.3659 101.316 16.0356C101.776 16.7053 102.009 17.4021 102.009 18.1258C102.009 18.7415 101.819 19.2168 101.446 19.5571C101.072 19.8973 100.585 20.0702 99.9951 20.0702C99.3564 20.0702 98.8367 19.8379 98.4415 19.3788C98.0464 18.9197 97.8136 18.3148 97.7486 17.5695C97.727 17.0888 97.7378 16.6729 97.7811 16.3327C97.8244 15.9924 97.8244 15.6467 97.7811 15.2957C97.6945 14.923 97.5537 14.6746 97.3697 14.5557C97.1802 14.4369 96.9258 14.3721 96.5956 14.3721C95.2531 14.3721 94.2138 14.9554 93.4776 16.1166C92.7414 17.2832 92.3733 19.1358 92.3733 21.685C92.3733 23.9049 92.7847 25.6008 93.6129 26.7728C94.4411 27.9502 95.7078 28.5335 97.4292 28.5335C98.4632 28.5335 99.3022 28.3499 99.941 27.9718C100.58 27.5991 101.197 27.0374 101.792 26.2921L102.123 26.5568C101.57 27.853 100.726 28.8522 99.5783 29.5543C98.4307 30.2564 97.0774 30.6075 95.5184 30.6075L95.5021 30.6183Z" fill="#00062B"/>
<path d="M102.999 30.1214V29.792L103.498 29.6245C104.245 29.3815 104.618 28.8468 104.618 28.0096V10.3862C104.618 9.94867 104.531 9.61921 104.353 9.39777C104.174 9.17633 103.871 9.0035 103.427 8.86847L102.999 8.77126V8.4418L109.041 7.02673L109.436 7.32379L109.338 11.9362V28.015C109.338 28.8954 109.701 29.4409 110.426 29.6623L110.887 29.792V30.1214H102.994H102.999ZM115.25 30.1214L109.371 21.8849L115.477 16.2516C115.764 15.987 115.932 15.7061 115.991 15.4091C116.045 15.112 115.856 14.896 115.412 14.7664L114.849 14.5989V14.2695H119.77V14.5989L118.779 14.8636C118.297 15.0202 117.902 15.1984 117.604 15.4091C117.307 15.6197 116.949 15.9114 116.533 16.284L112.835 19.7461L118.747 27.9502C119.099 28.4363 119.429 28.809 119.737 29.0682C120.046 29.3329 120.441 29.5543 120.928 29.7271L121.058 29.792V30.1214H115.244H115.25Z" fill="#00062B"/>
<path d="M129.351 30.1214V29.792L130.012 29.5597C130.759 29.3167 131.132 28.6901 131.132 27.6802V10.8182C131.132 10.3808 131.083 10.0297 130.986 9.76504C130.889 9.50039 130.629 9.28435 130.212 9.10612L129.351 8.71185V8.38239H135.723L141.834 24.3261L147.578 8.38239H154.084V8.71185L153.554 8.91168C153.137 9.06831 152.85 9.27895 152.693 9.5544C152.542 9.82985 152.46 10.1863 152.46 10.6238V27.853C152.46 28.2905 152.515 28.6307 152.623 28.8738C152.731 29.1168 152.996 29.3221 153.413 29.5003L154.074 29.7974V30.1268H145.851V29.7974L146.544 29.5003C146.961 29.3275 147.226 29.1168 147.334 28.8738C147.442 28.6307 147.496 28.2905 147.496 27.853V20.4374L147.561 11.0127L140.659 30.1214H139.008L131.809 11.2449L131.906 19.449V27.7504C131.906 28.2365 131.977 28.6253 132.123 28.9224C132.269 29.2194 132.545 29.4355 132.967 29.5651L133.693 29.7974V30.1268H129.335L129.351 30.1214Z" fill="#00062B"/>
<path d="M162.967 30.6183C161.295 30.6183 159.839 30.2726 158.61 29.5813C157.376 28.89 156.423 27.907 155.752 26.6324C155.08 25.3577 154.745 23.8671 154.745 22.1495C154.745 20.432 155.102 18.9521 155.817 17.7045C156.531 16.4569 157.511 15.4847 158.756 14.8042C160.001 14.1236 161.403 13.7834 162.967 13.7834C164.532 13.7834 165.929 14.1182 167.163 14.788C168.397 15.4577 169.371 16.4191 170.086 17.6721C170.8 18.9251 171.158 20.4158 171.158 22.1549C171.158 23.8941 170.822 25.3901 170.151 26.654C169.48 27.9178 168.532 28.8954 167.309 29.5867C166.086 30.278 164.64 30.6237 162.967 30.6237V30.6183ZM162.967 29.9594C163.736 29.9594 164.353 29.7379 164.819 29.3005C165.279 28.863 165.615 28.0798 165.826 26.9618C166.037 25.8438 166.14 24.2613 166.14 22.2197C166.14 20.1782 166.037 18.5633 165.826 17.4453C165.615 16.3273 165.279 15.5441 164.819 15.1066C164.359 14.6691 163.742 14.4477 162.967 14.4477C162.193 14.4477 161.576 14.6691 161.1 15.1066C160.624 15.5441 160.288 16.3273 160.077 17.4453C159.866 18.5633 159.763 20.1566 159.763 22.2197C159.763 24.2829 159.866 25.8438 160.077 26.9618C160.288 28.0798 160.629 28.863 161.1 29.3005C161.571 29.7379 162.193 29.9594 162.967 29.9594Z" fill="#00062B"/>
<path d="M178.449 30.6183C177.589 30.6183 176.804 30.4509 176.089 30.1214C175.375 29.7919 174.812 29.2572 174.406 28.5227C174 27.7882 173.805 26.816 173.826 25.6062L173.924 17.1374C173.924 16.6297 173.837 16.2678 173.659 16.0518C173.48 15.8304 173.209 15.6791 172.83 15.5927L172.435 15.4631V15.1336L178.347 13.9778L178.677 14.3073L178.509 18.9845V26.924C178.509 27.6261 178.715 28.1446 179.121 28.4741C179.527 28.8036 180.041 28.971 180.658 28.971C181.275 28.971 181.827 28.8846 182.309 28.7063C182.791 28.5281 183.278 28.2689 183.76 27.9178L183.89 17.1752C183.89 16.6675 183.814 16.311 183.657 16.1058C183.5 15.8952 183.218 15.7493 182.796 15.6629L182.466 15.5657V15.2362L188.242 13.9832L188.572 14.3127L188.475 18.9899V27.9178C188.475 28.4039 188.54 28.7766 188.675 29.0358C188.805 29.3005 189.092 29.5219 189.536 29.6947L189.866 29.7919V30.1214L184.09 30.4509L183.792 28.5065C183.067 29.1006 182.277 29.5975 181.432 30.008C180.588 30.4185 179.586 30.6183 178.444 30.6183H178.449Z" fill="#00062B"/>
<path d="M191.198 30.1214V29.792L191.658 29.6623C192.426 29.4409 192.811 28.9062 192.811 28.0474V17.7369C192.811 17.2562 192.735 16.8944 192.578 16.6675C192.421 16.4353 192.129 16.2786 191.685 16.1922L191.187 16.0626V15.7331L196.833 13.8212L197.163 14.1507L197.428 16.1274C198.197 15.4469 199.068 14.8852 200.037 14.4477C201.006 14.0102 201.965 13.7888 202.912 13.7888C204.363 13.7888 205.483 14.1831 206.263 14.977C207.042 15.7656 207.437 16.9754 207.437 18.6011V28.0906C207.437 28.9494 207.854 29.4841 208.693 29.7055L208.991 29.8028V30.1322H201.196V29.8028L201.624 29.6731C202.392 29.4301 202.777 28.8954 202.777 28.0582V17.5479C202.777 16.1436 202.073 15.4415 200.665 15.4415C199.696 15.4415 198.641 15.9276 197.493 16.889V28.0906C197.493 28.9494 197.878 29.4841 198.646 29.7055L198.944 29.8028V30.1322H191.187L191.198 30.1214Z" fill="#00062B"/>
<path d="M216.391 30.6183C214.983 30.6183 213.885 30.2672 213.105 29.5651C212.326 28.863 211.93 27.7396 211.93 26.2057V14.9338H209.651V14.6043L210.442 14.4747C211.124 14.3235 211.714 14.102 212.206 13.8158C212.705 13.5295 213.192 13.1461 213.673 12.66L216.38 9.66241H216.71L216.613 14.2749H220.31V14.9338H216.58V26.7944C216.58 27.5613 216.748 28.1446 217.095 28.5389C217.436 28.9332 217.869 29.133 218.399 29.133C218.859 29.133 219.271 29.0196 219.623 28.7874C219.974 28.5551 220.326 28.2419 220.678 27.8476L221.008 28.177C220.57 28.9224 219.964 29.5165 219.195 29.954C218.426 30.3915 217.49 30.6129 216.385 30.6129L216.391 30.6183Z" fill="#00062B"/>
<path d="M27.7971 0.005401C27.4181 1.00459 27.1529 1.69051 26.8498 2.48446C28.7715 1.57169 29.9949 1.74452 30.4929 1.79313C29.8108 2.92194 29.2099 3.80771 28.7444 4.74208C28.5928 5.04994 28.6361 5.63865 28.8689 5.87089C30.2168 7.22654 30.7365 8.77123 30.9259 10.5806C31.1641 12.849 31.8733 15.0796 32.2251 17.3426C32.3821 18.358 32.3659 19.4706 32.0681 20.4482C31.6188 21.9227 29.6646 22.7274 28.1489 22.2413C27.1583 21.9227 26.5412 21.3448 26.709 20.2862C26.9905 18.52 26.3193 17.3372 24.5708 16.4893C23.8021 16.1166 22.9468 15.8519 22.2539 15.3875C21.5339 14.9014 20.9655 14.237 20.2835 13.6051C19.661 14.2046 19.6447 15.0688 20.3051 15.9059C20.8843 16.6351 21.5448 17.3264 22.2593 17.9475C26.2597 21.4528 27.0555 25.6007 25.3936 30.2672C24.246 33.4916 22.3459 36.2461 19.2062 38.5253C19.5852 35.9437 18.0965 34.318 16.3156 32.8759C13.6252 30.6885 10.7399 28.6847 8.16862 26.3893C3.51322 22.2359 2.43057 16.9213 4.8936 11.6824C7.48113 6.20035 13.5494 2.25762 19.6176 2.45746C21.5989 2.52227 23.2175 2.23601 24.8144 1.24763C25.6209 0.750739 26.4708 0.334862 27.7971 0V0.005401Z" fill="#00062B"/>
<path d="M2.51173 12.2388H11.043C11.043 13.5728 9.95495 14.6584 8.61788 14.6584H0.0811768C0.0811768 13.3244 1.16924 12.2388 2.50631 12.2388H2.51173Z" fill="#D9A25F"/>
<path d="M2.42514 17.6667H13.2083C13.2083 19.0008 12.1203 20.0864 10.7832 20.0864H0C0 18.7523 1.08806 17.6667 2.42514 17.6667Z" fill="#D9A25F"/>
<path d="M2.51173 23.0947H16.9976C16.9976 24.4288 15.9095 25.5144 14.5725 25.5144H0.0811768C0.0811768 24.1803 1.16924 23.0947 2.50631 23.0947H2.51173Z" fill="#D9A25F"/>
</svg>
