<svg width="16" height="16" viewBox="0 0 16 16" fill="none" xmlns="http://www.w3.org/2000/svg">
<circle cx="8" cy="8" r="8" fill="white"/>
<path d="M11.3583 2.20163C11.2403 2.51286 11.1577 2.72652 11.0632 2.97382C11.6618 2.68951 12.0429 2.74334 12.198 2.75848C11.9856 3.11009 11.7984 3.38599 11.6534 3.67703C11.6062 3.77292 11.6197 3.95629 11.6922 4.02863C12.112 4.4509 12.2739 4.93204 12.3329 5.49562C12.4071 6.20219 12.628 6.89699 12.7376 7.60189C12.7865 7.91816 12.7814 8.26472 12.6887 8.56922C12.5487 9.02849 11.94 9.27916 11.4679 9.12775C11.1594 9.02849 10.9671 8.84849 11.0194 8.51875C11.1071 7.96863 10.898 7.6002 10.3534 7.33608C10.114 7.22 9.84754 7.13757 9.63172 6.99289C9.40746 6.84148 9.23042 6.63455 9.01796 6.43772C8.82406 6.62446 8.819 6.89363 9.02471 7.15439C9.20512 7.3815 9.41083 7.59684 9.6334 7.79031C10.8795 8.88213 11.1273 10.1742 10.6097 11.6277C10.2522 12.632 9.66038 13.49 8.68242 14.2C8.80045 13.3958 8.33676 12.8894 7.78202 12.4402C6.94401 11.7589 6.0453 11.1348 5.24439 10.4198C3.79431 9.12607 3.45708 7.47066 4.22427 5.83881C5.03025 4.13126 6.92041 2.90316 8.81057 2.96541C9.42769 2.9856 9.93185 2.89643 10.4293 2.58857C10.6805 2.43379 10.9452 2.30426 11.3583 2.19995V2.20163Z" fill="#00062B"/>
<path d="M3.48236 6.01221H6.13972C6.13972 6.42774 5.8008 6.76589 5.38433 6.76589H2.72529C2.72529 6.35035 3.0642 6.01221 3.48068 6.01221H3.48236Z" fill="#D9A25F"/>
<path d="M3.45539 7.70288H6.81418C6.81418 8.11841 6.47526 8.45656 6.05879 8.45656H2.7C2.7 8.04103 3.03891 7.70288 3.45539 7.70288Z" fill="#D9A25F"/>
<path d="M3.48236 9.39355H7.99447C7.99447 9.80909 7.65556 10.1472 7.23908 10.1472H2.72529C2.72529 9.7317 3.0642 9.39355 3.48068 9.39355H3.48236Z" fill="#D9A25F"/>
</svg>
