<svg width="80" height="80" viewBox="0 0 80 80" fill="none" xmlns="http://www.w3.org/2000/svg">
<path d="M67.6363 77.1342C67.6363 77.8804 54.3765 78.4848 38.0201 78.4848C21.6637 78.4848 8.40393 77.8804 8.40393 77.1342C8.40393 76.388 21.6637 75.7837 38.0201 75.7837C54.3765 75.7837 67.6363 76.388 67.6363 77.1342Z" fill="#F3F6FF"/>
<path d="M7.08339 32.7028C6.56494 34.5618 6.77572 36.5716 6.00055 38.3557C5.35524 39.8401 4.08661 41.0268 3.25051 42.4303C1.73114 44.9816 1.75312 48.0962 2.54626 50.9062C2.84195 51.9541 3.24252 53.0059 3.17559 54.0868C3.07769 55.6561 2.02183 57.0166 1.16375 58.3812C0.304673 59.7457 -0.395574 61.3999 0.256725 62.8563C0.741204 63.9372 1.90595 64.7243 2.17766 65.8641C2.40142 66.8041 1.96489 67.7541 1.71216 68.6891C1.45943 69.6241 1.46842 70.7718 2.30752 71.3582C3.05971 71.8836 4.12157 71.7178 5.05956 71.589C7.50094 71.2543 10.0142 71.3532 12.4147 71.8796C13.018 72.0115 13.6903 72.1633 14.2277 71.8816C15.0528 71.4491 14.9719 70.3193 14.5304 69.5521C14.0889 68.785 13.3896 68.0977 13.2877 67.2366C13.1149 65.7752 14.6792 64.6824 15.3725 63.3548C16.4034 61.3809 15.4464 58.9455 16.3115 56.9067C16.725 55.9318 17.5371 55.1057 17.7949 54.0878C18.0876 52.935 17.6241 51.7353 17.699 50.5546C17.7569 49.6455 18.1315 48.7755 18.2264 47.8695C18.4182 46.0454 17.4742 44.3053 16.725 42.6041C15.9758 40.9029 15.4144 38.9251 16.3215 37.2878C16.8269 36.3768 17.8468 35.6316 18.1045 34.6147C18.3663 33.5838 17.7859 32.5569 17.692 31.531C17.5531 30.0037 17.9018 28.1137 16.2066 27.1288C12.6864 25.083 7.84357 29.9767 7.08239 32.7048L7.08339 32.7028Z" fill="black"/>
<path d="M62.252 40.4614C62.3829 40.6572 70.9627 52.3337 70.9627 52.3337L70.5701 54.8839L55.5303 63.4497L56.3774 60.0823L65.7303 52.3996L58.3552 47.0044L62.25 40.4624L62.252 40.4614Z" fill="black"/>
<path d="M20.2433 36.266C20.1244 38.0041 20.6448 39.7243 21.2452 41.3805C22.373 44.4932 23.8054 47.5489 24.3169 50.7874C24.8283 54.0269 24.2859 57.5831 21.8735 60.0464C25.6854 64.8952 26.3167 71.2234 26.8252 77.1291C28.3405 77.1391 29.4404 77.1291 30.8808 77.1291C30.755 72.3322 29.769 67.6193 28.0249 62.7805C27.6763 61.8125 27.3236 60.7986 27.5074 59.7957C27.6433 59.0535 28.0638 58.3802 28.4644 57.7189C31.2754 53.0799 33.521 48.0364 33.7657 42.767C33.8966 39.963 33.4041 37.0272 31.607 34.7227C28.2866 30.4642 20.6748 29.9728 20.2423 36.266H20.2433Z" fill="black"/>
<path d="M49.6926 26.3696C49.9913 26.2986 54.929 25.065 57.675 20.2591C60.4211 15.4533 62.5637 9.28992 62.5637 9.28992C62.5637 9.28992 69.0528 13.3935 69.0528 13.7851C69.0528 14.1767 64.159 39.8561 64.159 39.8561L49.6916 26.3696H49.6926Z" fill="#444444"/>
<path d="M16.8708 26.7322C16.8708 26.7322 12.2608 31.7348 11.9661 34.2851C11.6714 36.8353 15.3994 47.4289 15.3994 47.4289C15.3994 47.4289 22.5597 45.3692 26.7772 46.1543C30.9947 46.9395 39.7243 49.8813 47.2772 50.5686C54.83 51.2548 60.9115 48.2141 60.9115 48.2141C60.9115 48.2141 63.266 46.9385 63.8543 42.4273C64.4427 37.9152 65.13 29.676 65.13 29.676L57.3274 23.0511C57.3274 23.0511 53.3586 26.7332 43.2565 27.2237C30.2255 27.856 22.5597 24.3787 16.8708 26.7332V26.7322Z" fill="#444444"/>
<path d="M60.9125 45.4821C60.9125 45.4821 54.831 48.5228 47.2781 47.8366C39.7253 47.1503 30.9956 44.2075 26.7782 43.4223C22.5607 42.6372 15.4004 44.697 15.4004 44.697C15.4004 44.697 12.978 37.8104 12.1929 33.8057C12.077 34.1193 11.9981 34.414 11.9671 34.6827C11.6724 37.233 15.4004 47.8266 15.4004 47.8266C15.4004 47.8266 22.5607 45.7668 26.7782 46.551C30.9956 47.3361 39.7253 50.278 47.2781 50.9652C54.831 51.6515 60.9125 48.6107 60.9125 48.6107V45.4811V45.4821Z" fill="#333333"/>
<path d="M27.4885 45.9656C27.5224 46.0565 27.6533 45.9576 27.6822 45.8647C28.3785 43.694 27.883 41.2706 26.7752 39.2777C25.8682 37.6465 24.4507 36.1761 22.6307 35.7645C23.7964 38.112 23.6606 40.906 23.0632 43.4583C22.9024 44.1435 22.7386 44.9506 23.2031 45.4801C23.5457 45.8707 24.1121 45.9556 24.6305 45.9965C25.8113 46.0914 27 46.0894 28.1807 45.9905L27.4885 45.9646V45.9656Z" fill="#333333"/>
<path d="M11.5466 36.266C11.4277 38.0041 11.9482 39.7243 12.5485 41.3805C13.6763 44.4932 15.1088 47.5489 15.6202 50.7874C16.1317 54.0269 15.5893 57.5831 13.1768 60.0464C16.9887 64.8952 17.6201 71.2234 18.1285 77.1291C19.6439 77.1391 20.7437 77.1291 22.1842 77.1291C22.0583 72.3322 21.0714 67.6193 19.3282 62.7805C18.9796 61.8125 18.627 60.7986 18.8108 59.7957C18.9466 59.0535 19.3672 58.3802 19.7678 57.7189C22.5787 53.0799 24.8243 48.0364 25.0691 42.767C25.1999 39.963 24.7075 37.0272 22.9104 34.7227C19.59 30.4642 11.9781 29.9728 11.5456 36.266H11.5466Z" fill="#444444"/>
<path d="M50.0841 48.251C49.7265 46.2262 49.9742 43.9936 51.8702 42.4363C51.8492 43.609 52.2778 44.7848 53.0979 45.8097C53.915 46.8296 55.1177 47.7136 55.6282 48.8254C55.7201 49.0262 55.787 49.25 55.6611 49.4417C55.5552 49.6036 55.3325 49.7115 55.1117 49.8024C54.2307 50.164 52.5645 50.6594 51.5216 50.3668C50.4577 50.0691 50.203 48.9293 50.0821 48.25L50.0841 48.251Z" fill="#333333"/>
<path d="M59.3172 52.1189C58.2843 55.2885 57.635 58.547 57.0317 61.8035C56.0867 66.904 54.7171 73.4869 56.9937 77.129C55.5712 77.0641 53.1958 77.194 51.7733 77.129C51.2738 75.9113 51.0221 74.5128 51.0331 73.2162C50.6435 73.5009 50.2539 73.7846 49.8654 74.0693C50.7764 71.545 51.3987 68.9428 51.8302 66.3187C52.2648 63.6715 52.5065 61.0034 52.7473 58.3372C53.0869 54.5793 53.4145 50.7164 52.1879 47.1083C51.8942 46.2432 51.5096 45.3882 51.4507 44.4861C51.3767 43.3553 51.8252 42.2435 52.4316 41.2486C53.7572 39.0749 55.9398 37.2759 58.578 36.5107C60.3701 35.9913 62.5148 36.0342 63.6695 37.5496C64.6275 38.8082 63.8393 40.1478 63.3878 41.4644C62.1551 45.0535 60.4929 48.5128 59.3182 52.1179L59.3172 52.1189Z" fill="#444444"/>
<path d="M63.9033 12.4855C62.0843 12.4855 61.5059 14.0148 62.5807 18.8097C63.6556 23.6045 66.7602 26.1578 66.7602 26.1578L69.0538 16.2065L63.9033 12.4865V12.4855Z" fill="#333333"/>
<path d="M72.4441 5.32324C72.502 5.20137 75.1951 3.47223 75.4409 3.63606C75.6866 3.79988 73.1463 9.20407 73.1463 9.20407L70.8388 7.6857L72.4441 5.32324Z" fill="black"/>
<path d="M64.6544 7.16321C64.6544 7.16321 69.3574 3.52112 71.9007 5.17634C73.5089 6.22322 79.999 24.8392 79.999 24.8392C79.999 24.8392 78.6734 26.4445 76.3089 26.1108C73.9095 25.7722 73.7177 22.1261 72.7028 21.263C70.9816 19.7986 69.2875 20.386 64.4007 16.5991C58.6889 12.1728 64.6544 7.16321 64.6544 7.16321V7.16321Z" fill="#444444"/>
<path d="M69.4124 5.7498C69.4124 5.7498 72.9865 1.78905 73.459 2.00882C73.9315 2.22858 73.0804 7.03941 73.0804 7.03941L69.2336 5.98354L69.4134 5.7498H69.4124Z" fill="#444444"/>
<path d="M70.0127 6.19729C70.0127 6.19729 72.2503 3.51617 72.4651 3.56512C72.6808 3.61406 72.3752 6.84559 72.3752 6.84559L70.0127 6.19729Z" fill="#333333"/>
<path d="M64.5686 5.4971C63.3769 6.24429 62.4389 7.32713 61.5209 8.39298C60.0714 10.0752 58.588 11.8163 57.8918 13.924C57.5002 15.1108 57.3723 16.3764 56.9378 17.5481C56.4533 18.8557 55.5843 20.0175 54.4685 20.8536C53.2358 21.7766 51.5636 22.5148 51.3048 24.0322C51.2319 24.4617 51.2839 24.9282 51.0721 25.3088C50.9103 25.5975 50.6196 25.7893 50.3259 25.9421C49.4598 26.3936 48.4869 26.6094 47.6208 27.0609C46.7547 27.5124 45.9616 28.3106 45.9376 29.2865C45.9266 29.753 46.0915 30.2045 46.1354 30.669C46.2243 31.607 45.8167 32.5131 45.6489 33.4411C45.4821 34.3691 45.6719 35.5138 46.523 35.9184L46.4541 35.2231C47.7746 35.7726 49.4658 35.1582 50.1251 33.8886C50.3978 33.3631 50.5347 32.7218 51.0172 32.3802C51.3868 32.1185 51.8722 32.1005 52.2968 31.9427C53.8182 31.3793 54.3526 29.1547 55.9509 28.877C56.3454 28.808 56.749 28.877 57.1496 28.886C59.3013 28.9359 61.2951 26.994 61.3011 24.8413C61.3041 23.7864 60.9175 22.6347 61.4679 21.7336C61.9324 20.9735 62.9793 20.5889 63.1561 19.7158C63.227 19.3632 63.1341 18.9986 63.1611 18.64C63.3239 16.5222 67.0519 16.4204 67.5044 14.3446C67.7582 13.1818 66.7882 11.9572 67.1958 10.8394C67.5314 9.91735 68.6412 9.53176 69.1936 8.72063C69.4593 8.33105 69.5812 7.86455 69.6981 7.40804C70.1066 5.81875 70.9577 4.54113 68.872 4.40627C67.1938 4.29839 66.067 4.98065 64.5686 5.4961V5.4971Z" fill="black"/>
<path d="M24.4048 74.8315C24.2809 75.5088 24.157 76.1871 24.0342 76.8644C24.5027 77.0262 25.0111 76.6816 25.5006 76.7625C25.7214 76.7994 25.9182 76.9193 26.1279 76.9972C26.4815 77.1281 26.8681 77.1351 27.2457 77.1341C27.932 77.1311 28.6542 77.0941 29.2356 76.7285C30.0068 76.244 30.3474 75.2951 30.4922 74.395C30.7789 72.6189 29.9988 69.789 27.6193 70.1036C26.7782 70.2155 26.4805 71.0067 26.1279 71.6769C25.5376 72.7977 24.6415 73.5429 24.4058 74.8306L24.4048 74.8315Z" fill="black"/>
<path d="M17.7989 77.134L22.1841 77.13L21.9624 73.8865L17.2524 73.8655L17.7989 77.134Z" fill="black"/>
<path d="M16.9158 73.1922C16.5123 73.9334 15.8909 74.5288 15.3895 75.2071C14.903 75.8643 14.5923 76.0541 14.7172 76.8203C14.7212 76.8423 14.7511 76.8463 14.7611 76.8263C14.903 76.5486 15.0468 76.7184 15.3675 76.6046C15.5942 76.5236 15.829 76.4687 16.0697 76.4587C17.2674 76.4088 18.4582 76.176 19.5869 75.7705C19.9556 75.6386 20.3391 75.4848 20.7257 75.5447C21.0204 75.5896 21.2941 75.7575 21.5918 75.7485C21.9864 75.7365 22.314 75.4038 22.4429 75.0302C22.5707 74.6567 22.5408 74.2491 22.4968 73.8565C22.293 72.0365 21.0484 68.3145 20.9365 68.2685C20.8546 68.2346 20.7607 68.2515 20.6748 68.2735C20.0984 68.4234 19.6409 68.788 19.1584 69.1156C18.7429 69.3973 18.0356 69.632 17.696 69.9677C16.9987 70.6559 17.4462 72.2213 16.9178 73.1912L16.9158 73.1922Z" fill="#444444"/>
<path d="M51.7733 77.1291L51.0321 75.1891L56.0317 73.7037L57.1915 77.2899L51.7733 77.1291Z" fill="black"/>
<path d="M48.2172 73.2912C47.9894 74.0384 47.9774 74.8675 47.5629 75.5308C47.2602 76.0142 46.7348 76.5187 46.9515 77.0461C47.1483 76.6466 47.6558 76.5057 48.1013 76.5237C48.5468 76.5407 48.9883 76.6715 49.4319 76.6276C50.3189 76.5397 51.0152 75.7865 51.8912 75.6207C52.3737 75.5298 52.8712 75.6247 53.3606 75.5907C54.1448 75.5367 54.865 75.1582 55.5593 74.7875C55.6802 74.7226 55.804 74.6557 55.8919 74.5518C56.0817 74.327 56.0587 73.9994 56.0308 73.7067C55.8699 72.0155 55.6492 70.4472 55.836 68.758C55.857 68.5722 56.1716 67.4524 56.0887 67.2846C55.5613 66.2148 52.1829 67.847 51.4737 68.5682C50.3079 69.753 48.7036 71.6939 48.2162 73.2942L48.2172 73.2912Z" fill="#444444"/>
<path d="M72.6229 11.0152L74.0954 13.6503L73.4141 13.2877C73.4141 13.2877 72.5041 13.036 72.3462 12.5985C72.1884 12.1609 72.5091 11.8672 72.5091 11.8672L72.2953 11.3588L72.6239 11.0142L72.6229 11.0152Z" fill="#231F20"/>
<path d="M77.6595 24.6614C77.5786 24.6364 77.4977 24.5665 77.5097 24.4826C77.5137 24.4546 77.5277 24.4287 77.5436 24.4057C77.6935 24.1919 77.9961 24.1669 78.2579 24.1629C78.3787 24.1609 78.5006 24.1579 78.6215 24.1639C78.4557 24.4127 77.9832 24.7623 77.6595 24.6614V24.6614Z" fill="#231F20"/>
</svg>
