<svg width="130" height="130" viewBox="0 0 130 130" fill="none" xmlns="http://www.w3.org/2000/svg">
<path d="M115.724 113.365C115.724 114.452 92.3164 115.333 63.4412 115.333C34.566 115.333 11.1582 114.452 11.1582 113.365C11.1582 112.277 34.566 111.396 63.4412 111.396C92.3164 111.396 115.724 112.277 115.724 113.365Z" fill="#F3F6FF"/>
<path d="M30.7228 52.0631C26.299 54.8944 22.3091 58.3603 17.9115 61.2323C13.5152 64.1044 8.54427 66.4145 3.29753 66.5222C4.418 67.1627 5.53991 67.8047 6.66038 68.4452C3.00145 71.2008 0.535559 75.4993 0 80.0585C3.35704 77.2942 7.209 75.134 11.315 73.7118C11.103 74.9302 10.8926 76.15 10.6807 77.3684C12.7155 75.0204 15.4427 73.2838 18.4282 72.4352C17.8708 73.6929 17.3135 74.9505 16.7562 76.2068C22.0871 74.3654 24.2424 68.0973 28.1509 64.0229C30.8694 61.1901 33.3135 54.8289 36.6328 52.7356C38.0029 51.8724 40.5269 55.4999 41.3991 54.1331C45.984 46.9377 33.3004 50.4138 30.7228 52.0631Z" fill="#444444"/>
<path d="M93.402 65.9996C93.402 65.9996 88.9434 69.8499 87.6952 72.5865C85.1625 78.1355 80.0609 91.7591 80.0609 91.7591L68.6008 90.762L67.0203 84.6511L62.0363 86.3673C62.0363 86.3673 63.3715 91.6106 64.6763 92.733C68.1422 95.7171 79.1524 96.4886 82.5762 96.4187C83.2975 96.4041 85.6908 94.471 85.6908 94.471L99.1437 75.2358L93.4035 65.9996H93.402Z" fill="#7A513F"/>
<path d="M105.909 18.2494C105.865 18.0761 107.161 14.0396 107.55 14.0003C107.939 13.961 109.882 21.6294 109.882 21.6294L106.254 22.0195L105.909 18.2508V18.2494Z" fill="#7A513F"/>
<path d="M35.508 65.25C36.1249 67.4743 37.5312 69.3928 39.0088 71.1979C41.7838 74.5881 44.913 77.7731 46.9768 81.5942C49.0407 85.4154 49.9304 90.0982 48.0102 94.2411C54.8926 98.6153 58.4645 106.242 61.6982 113.395C64.0813 113.577 64.9565 114.032 66.7504 113.395C64.4819 107.457 61.1786 100.215 56.8752 94.9398C56.0146 93.8844 55.1292 92.7738 54.9173 91.4389C54.7606 90.4505 54.987 89.4257 55.1945 88.4213C56.6532 81.3846 57.2294 74.0917 55.2148 67.4015C54.1423 63.8409 52.2366 60.3895 48.9841 58.305C42.9739 54.4519 33.2744 57.1987 35.508 65.2515V65.25Z" fill="#7A513F"/>
<path d="M99.508 26.6909C99.508 26.6909 101.248 19.0049 105.232 18.5566C107.75 18.2742 130 31.857 130 31.857C130 31.857 129.996 34.6155 127.303 36.2648C124.572 37.9388 121.314 34.3695 119.554 34.3404C116.569 34.2923 115.334 36.3186 107.17 36.5588C97.6285 36.8383 99.5065 26.6909 99.5065 26.6909H99.508Z" fill="#AF6C3E"/>
<path d="M83.0522 48.485C83.447 48.3919 89.9695 46.7557 93.598 40.3886C97.2264 34.0201 100.057 25.8538 100.057 25.8538C100.057 25.8538 108.63 31.2907 108.63 31.8103C108.63 32.33 102.165 66.3548 102.165 66.3548L83.0522 48.485V48.485Z" fill="#AF6C3E"/>
<path d="M39.6894 48.9655C39.6894 48.9655 33.5995 55.5931 33.2105 58.9732C32.8215 62.3518 37.746 76.3888 37.746 76.3888C37.746 76.3888 47.2061 73.6594 52.778 74.6987C58.3498 75.7381 69.8839 79.6378 79.8621 80.5476C89.8404 81.4574 97.8752 77.4281 97.8752 77.4281C97.8752 77.4281 100.986 75.7381 101.763 69.7597C102.541 63.7812 103.449 52.8637 103.449 52.8637L93.1408 44.0861C93.1408 44.0861 87.8984 48.9655 74.5515 49.6147C57.3367 50.4531 47.209 45.846 39.6923 48.9655H39.6894Z" fill="#AF6C3E"/>
<path d="M97.8738 73.8108C97.8738 73.8108 89.8389 77.8401 79.8607 76.9303C69.8825 76.0205 58.3498 72.1208 52.7765 71.0814C47.2047 70.0421 37.7446 72.7714 37.7446 72.7714C37.7446 72.7714 34.5443 63.6473 33.508 58.34C33.3556 58.7548 33.2511 59.1464 33.209 59.5016C32.8201 62.8802 37.7446 76.9172 37.7446 76.9172C37.7446 76.9172 47.2047 74.1878 52.7765 75.2272C58.3484 76.2665 69.8825 80.1662 79.8607 81.076C89.8389 81.9858 97.8738 77.9565 97.8738 77.9565V73.8093V73.8108Z" fill="#8C6246"/>
<path d="M53.7169 74.4513C53.7619 74.5706 53.9347 74.4396 53.9738 74.3174C54.8926 71.441 54.238 68.2298 52.775 65.5892C51.5776 63.4275 49.7039 61.4784 47.299 60.934C48.8403 64.0447 48.6589 67.7465 47.8708 71.128C47.6589 72.0363 47.4426 73.1062 48.0551 73.8064C48.5079 74.3232 49.2569 74.4367 49.9405 74.4906C51.5007 74.6158 53.0711 74.6129 54.6313 74.4833L53.7169 74.4484V74.4513Z" fill="#8C6246"/>
<path d="M83.5689 77.479C83.0957 74.7962 83.4237 71.8383 85.9288 69.7742C85.9013 71.3288 86.4673 72.8864 87.5515 74.2445C88.6313 75.5954 90.2206 76.7672 90.8954 78.2403C91.0174 78.5067 91.1044 78.8037 90.939 79.057C90.7997 79.2709 90.505 79.4151 90.2133 79.5344C89.0493 80.0133 86.8476 80.6698 85.4702 80.2826C84.0653 79.8881 83.7271 78.3786 83.5689 77.4776V77.479Z" fill="#8C6246"/>
<path d="M85.9274 69.7756C85.9274 69.7756 84.6197 75.7744 90.5588 78.4965C96.0929 81.0323 109.73 87.2742 109.73 87.2742L107.475 98.5877L101.245 99.4873L102.395 104.645C102.395 104.645 107.737 103.892 108.994 102.717C112.334 99.5921 114.315 88.7037 114.626 85.2829C114.691 84.5623 113.041 81.9625 113.041 81.9625L95.4673 66.4261L85.9274 69.7756V69.7756Z" fill="#AF6C3E"/>
<path d="M33.852 57.465C32.1176 60.1158 31.0218 63.1843 30.688 66.3388C30.3513 69.5107 34.1887 81.6786 26.9608 84.4604C26.6604 84.5768 26.4441 84.8563 26.2526 85.1169C25.9333 85.5463 25.7185 86.098 25.7663 86.6308C26.4035 93.7111 18.119 100.372 18.119 100.372C18.119 100.372 14.7925 100.559 12.463 99.8249C12.463 102.163 12.463 103.953 12.7634 105.816C18.1902 106.035 23.778 101.923 26.9753 98.081C30.1713 94.2395 30.1016 91.3399 33.1887 87.4096C37.0929 82.4385 45.6749 77.3684 47.8854 71.4423C49.5922 66.8643 48.6009 61.5293 45.7997 57.599C44.5922 55.9046 42.3237 53.296 40.1437 52.9452C37.4616 52.5143 35.1597 55.4664 33.8505 57.4665L33.852 57.465Z" fill="#AF6C3E"/>
<path d="M36.6647 51.4269C37.2206 50.622 37.8171 49.8301 38.5732 49.21C39.3512 48.5709 40.2772 48.1328 41.2322 47.8169C45.4194 46.434 49.9738 47.3598 54.2815 48.2973C55.3991 48.5404 61.6487 49.4851 64.5137 49.5404C65.5645 49.5608 59.7822 50.0251 59.8011 51.079C59.8084 51.4677 59.6429 51.8433 59.415 52.1577C58.6574 53.2029 57.2902 53.6003 56.0058 53.7123C54.7227 53.8244 53.4078 53.7225 52.1669 54.069C51.9869 54.1199 51.7982 54.1869 51.685 54.3368C51.4296 54.6789 51.7242 55.1462 51.7924 55.5683C51.91 56.2961 51.3134 56.9352 50.714 57.3602C49.955 57.8988 49.1059 58.3108 48.2148 58.5757C47.4528 58.8013 46.64 58.928 45.9724 59.3618C45.2568 59.8261 44.7895 60.5904 44.4528 61.375C43.3817 63.8627 43.3425 66.809 41.7314 68.9852C40.6995 70.3797 39.0624 71.3084 37.3381 71.4758C36.4107 71.5661 35.3671 71.3929 34.7822 70.6665C33.7576 69.3928 34.6328 67.1234 33.3657 66.0928C32.4891 65.3795 31.0769 65.3024 31.0682 63.8787C31.0609 62.6618 31.849 61.0969 32.2583 59.9717C33.3541 56.9512 34.8374 54.0719 36.6632 51.4299L36.6647 51.4269Z" fill="#EADECE"/>
<path d="M35.5762 56.9469C35.373 57.2409 35.1611 57.6005 35.2874 57.9353C35.4151 58.2744 35.8157 58.3967 36.1365 58.5656C36.7373 58.8814 37.1699 59.5001 37.2613 60.1741C37.3847 61.0984 36.9202 62.1232 37.389 62.9267C37.4601 63.0476 37.5574 63.1626 37.688 63.2106C37.9609 63.3096 38.2468 63.0883 38.4035 62.8438C39.0973 61.7637 38.508 60.2192 39.1553 59.11C39.3353 58.8028 39.6067 58.5365 39.6851 58.1886C39.7765 57.7824 39.5675 57.3486 39.2395 57.0924C38.9115 56.8377 38.4863 56.7372 38.0712 56.7227C36.9173 56.6805 36.45 55.6804 35.5762 56.9469V56.9469Z" fill="#AF6C3E"/>
<path d="M45.807 52.1489C45.4529 52.1242 45.1045 52.2421 44.7823 52.3906C44.5356 52.5041 44.2903 52.6424 44.122 52.8549C43.9536 53.0675 43.8723 53.3702 43.9841 53.6192C44.0726 53.8157 44.2598 53.9467 44.3861 54.1199C44.7344 54.6003 44.5458 55.267 44.3542 55.8303C44.2787 56.0516 44.2192 56.334 44.3948 56.4897C44.4674 56.5552 44.5675 56.58 44.6633 56.5974C45.196 56.6921 45.7606 56.5814 46.2192 56.2932C46.7591 55.954 47.1249 55.4038 47.4746 54.8681C47.6314 54.6265 47.7925 54.379 47.852 54.0966C47.9115 53.8142 47.8462 53.4881 47.6183 53.312C47.3063 53.0704 46.9043 52.9816 46.6169 52.7501C46.3179 52.5099 46.3397 52.1839 45.8099 52.146L45.807 52.1489Z" fill="#AF6C3E"/>
<path d="M41.9869 49.0193C41.6589 49.1518 41.3382 49.373 41.2192 49.7064C41.1466 49.9087 41.1568 50.13 41.1669 50.3454C41.2046 51.1242 41.2424 51.903 41.2787 52.6818C41.2903 52.9351 41.3048 53.1956 41.4224 53.4198C41.5689 53.6993 41.8795 53.8856 42.1959 53.8827C42.5109 53.8798 42.8186 53.6876 42.9608 53.4052C43.1263 53.0763 43.0668 52.6818 43.1335 52.3193C43.2671 51.5973 43.971 51.0252 44.7025 51.0442C45.2322 51.0587 45.7968 51.3353 46.2656 51.0864C46.6241 50.8957 46.7823 50.4197 46.6575 50.0325C46.5327 49.6453 46.1655 49.3629 45.7678 49.2843C45.4702 49.2246 45.1626 49.2668 44.8592 49.2551C44.3498 49.2362 44.0769 48.8781 43.6183 48.7777C43.1364 48.6729 42.4311 48.8403 41.9855 49.0193H41.9869Z" fill="#AF6C3E"/>
<path d="M47.0885 51.4954C46.7388 51.6715 46.4311 51.9991 46.5936 52.2946C46.7083 52.5027 47.0174 52.6075 47.3077 52.6308C47.5994 52.6541 47.8941 52.6163 48.1858 52.6352C48.7634 52.6716 49.2758 52.9191 49.7896 53.1272C50.3019 53.3354 50.8911 53.513 51.4499 53.3965C52.0102 53.2801 52.4325 52.7386 52.1074 52.3703C51.8679 52.0995 51.3788 52.0529 50.9536 52.066C50.5283 52.0791 50.0697 52.1213 49.7083 51.951C48.6938 51.4721 48.4195 50.8273 47.0885 51.4969V51.4954Z" fill="#AF6C3E"/>
<path d="M33.7968 62.1552C34.2772 62.6603 35.0943 62.7651 35.5065 63.327C35.926 63.8977 35.7619 64.6925 35.8694 65.3926C35.9303 65.79 36.1727 66.2384 36.5747 66.2456C36.8156 66.25 37.0305 66.0841 37.1756 65.8905C37.4485 65.528 37.5457 65.0374 37.431 64.5964C37.2714 63.9835 36.7445 63.5134 36.6052 62.8947C36.3352 61.6938 36.9927 59.6442 35.0653 59.4244C33.6966 59.2672 32.8752 61.1843 33.7968 62.1538V62.1552Z" fill="#AF6C3E"/>
<path d="M37.3571 68.0754C37.1757 68.2923 37.0204 68.5936 37.1481 68.8469C37.2656 69.0812 37.5632 69.1467 37.8215 69.1831C37.9971 69.2079 38.1815 69.2297 38.344 69.1598C38.5733 69.0623 38.701 68.8134 38.9129 68.6824C39.3295 68.4262 39.8984 68.7115 40.3527 68.531C40.8563 68.3301 40.9826 67.6736 40.955 67.1306C40.955 67.1088 39.3542 67.0404 39.1858 67.0622C38.4848 67.1568 37.8114 67.5339 37.3571 68.0754V68.0754Z" fill="#AF6C3E"/>
<path d="M36.6343 52.7356C36.196 53.1112 36.0886 53.8972 36.5487 54.2451C36.9391 54.5406 37.5008 54.3994 37.9652 54.5537C38.5777 54.7575 38.9376 55.446 39.5559 55.6309C39.704 55.6746 39.8796 55.6819 40 55.5858C40.2279 55.4038 40.106 55.0414 39.9652 54.7852C39.6764 54.2582 39.3876 53.7313 39.0987 53.2043C38.5937 52.2814 37.4834 52.0048 36.6328 52.7356H36.6343Z" fill="#AF6C3E"/>
<path d="M33.6589 86.8332C33.6227 86.7066 33.582 86.5828 33.5356 86.4591C32.881 84.7268 31.1306 83.5507 29.3005 83.3003C29.1742 83.2828 29.0479 83.2712 28.9216 83.261C28.3832 83.7515 27.7359 84.1591 26.9608 84.4575C26.6604 84.574 26.4441 84.8535 26.2526 85.1141C25.9333 85.5435 25.7185 86.0952 25.7663 86.6279C26.4035 93.7083 18.119 100.369 18.119 100.369C18.119 100.369 14.7925 100.556 12.463 99.8221C12.463 102.16 12.463 103.95 12.7634 105.814C18.1902 106.032 23.778 101.92 26.9753 98.0782C30.1713 94.2367 30.1016 91.337 33.1887 87.4067C33.3382 87.216 33.4964 87.0253 33.6589 86.8332V86.8332Z" fill="#444444"/>
<path d="M113.091 81.9625L111.195 80.2855C110.967 80.482 110.795 80.7339 110.746 81.0279C110.563 82.1328 112.103 83.2362 111.469 84.1591C111.058 84.7573 110.141 84.5696 109.475 84.2857C108.808 84.0018 107.948 83.7209 107.437 84.2347C107.033 84.6409 107.118 85.325 107.357 85.8447C107.424 85.9874 107.499 86.1271 107.576 86.2639C108.933 86.8855 109.779 87.2727 109.779 87.2727L107.524 98.5862L101.295 99.4858L102.444 104.643C102.444 104.643 107.787 103.891 109.044 102.716C112.383 99.5906 114.366 88.7022 114.675 85.2814C114.74 84.5608 113.09 81.961 113.09 81.961L113.091 81.9625Z" fill="#444444"/>
<path d="M55.1829 96.1363C54.5167 95.9339 54.0407 95.3589 53.6227 94.8C53.2047 94.241 52.7736 93.6456 52.1379 93.3632C51.0813 92.8945 50.2003 93.6325 50.3992 94.7024C50.553 95.5293 51.0973 96.0606 51.3324 96.8175C56.1292 101.272 59.0291 107.492 61.6967 113.393C64.0799 113.575 64.9551 114.031 66.749 113.393C64.6111 107.801 61.5559 101.049 57.6125 95.8757C56.794 96.0329 55.9696 96.3735 55.1829 96.1348V96.1363Z" fill="black"/>
<path d="M119.856 27.835C118.608 28.5075 117.856 29.8162 117.168 31.0608C116.731 31.8526 116.279 32.745 116.501 33.6213C116.61 34.0536 116.868 34.4146 117.184 34.7349C117.968 34.4932 118.688 34.3331 119.554 34.3462C121.313 34.3753 124.57 37.9446 127.303 36.2706C129.996 34.6213 130 31.8628 130 31.8628C130 31.8628 126.585 29.7783 122.28 27.26C121.412 27.3022 120.573 27.4492 119.856 27.8365V27.835Z" fill="#444444"/>
<path d="M102.314 19.1315C101.994 19.3993 101.778 19.7676 101.569 20.1286C100.511 21.9467 99.4369 23.8071 99.016 25.8697C98.8853 26.5059 98.82 27.1566 98.643 27.781C98.0145 29.998 96.0871 31.6371 95.3353 33.8148C95.0421 34.6634 94.926 35.5936 94.418 36.3331C93.8084 37.2196 92.7489 37.6665 91.9332 38.3666C91.1074 39.0756 90.5269 40.0683 90.315 41.1368C90.2482 41.4716 90.2134 41.8209 90.0479 42.1194C89.7867 42.5881 89.2627 42.8283 88.8171 43.1281C87.9187 43.7308 87.2569 44.6799 87.0015 45.7323C86.9521 45.9347 86.9173 46.1501 86.9739 46.351C87.0682 46.6872 87.4064 46.9114 87.7504 46.9638C88.0943 47.0162 88.4456 46.926 88.775 46.8124C89.9202 46.4179 90.9579 45.7207 91.7591 44.8094C92.1234 44.3946 92.447 43.9288 92.9057 43.6187C93.3962 43.2868 94.0087 43.1572 94.4717 42.7861C94.9144 42.4294 95.1684 41.8952 95.4064 41.3784C96.164 39.7408 96.9245 38.0944 97.4151 36.3578C97.7475 35.1846 97.9565 33.9705 98.4238 32.8453C98.9376 31.608 99.7649 30.474 99.9608 29.1494C100.061 28.4696 99.9898 27.7723 100.118 27.0969C100.329 25.9818 101.064 25.0429 101.464 23.9817C101.843 22.9744 101.946 21.8099 102.673 21.0151C103.007 20.6512 103.456 20.3892 103.708 19.9656C104.388 18.8301 103.058 18.5128 102.316 19.1358L102.314 19.1315Z" fill="#444444"/>
<path d="M103.174 21.2393C103.174 21.2393 103.495 14.1779 104.163 14.0046C104.829 13.8314 107.999 19.4707 107.999 19.4707L103.187 21.6294L103.174 21.2393V21.2393Z" fill="#AF6C3E"/>
<path d="M104.163 21.1913C104.163 21.1913 104.195 16.5637 104.456 16.4327C104.717 16.3017 107.118 19.8652 107.118 19.8652L104.163 21.1913Z" fill="#7A513F"/>
<path d="M100.868 31.988C100.868 31.988 101.858 33.8731 103.717 35.0828C104.814 35.7961 106.871 36.4162 107.792 36.4977L106.57 43.0424C106.57 43.0424 104.565 43.4514 102.517 39.3916C100.467 35.3317 100.868 31.988 100.868 31.988V31.988Z" fill="#8C6246"/>
<path d="M109.932 23.3792L114.017 24.9775L112.919 25.2016C112.919 25.2016 111.666 25.7621 111.084 25.4171C110.502 25.0706 110.591 24.4447 110.591 24.4447L109.881 24.0706L109.93 23.3792H109.932Z" fill="#231F20"/>
<path d="M128.19 34.0551C128.075 34.1017 127.922 34.0987 127.858 33.9925C127.836 33.9575 127.829 33.9153 127.826 33.8746C127.797 33.4946 128.113 33.1875 128.402 32.94C128.537 32.825 128.669 32.71 128.81 32.6052C128.853 33.0376 128.647 33.8702 128.19 34.0551Z" fill="#231F20"/>
<path d="M25.1365 91.6485C25.0755 91.5932 25.0146 91.5423 24.9536 91.4913C22.9551 96.4828 18.122 100.369 18.122 100.369C18.122 100.369 14.7954 100.556 12.4659 99.8221C12.4659 102.16 12.4659 103.95 12.7664 105.814C18.1945 106.032 23.7809 101.92 26.9783 98.0782C27.5022 97.4494 27.9362 96.8453 28.3121 96.2586C27.778 94.6079 26.6938 93.0707 25.1379 91.6485H25.1365Z" fill="#EADECE"/>
<path d="M55.4717 101.659C57.9927 105.29 59.8984 109.415 61.6981 113.395C64.0813 113.577 64.9564 114.032 66.7503 113.395C65.7024 110.651 64.431 107.629 62.9448 104.651C62.7968 104.616 62.6473 104.585 62.4949 104.563C61.717 104.457 60.9027 104.55 60.1625 104.287C59.2293 103.955 58.582 103.122 57.7997 102.515C57.2337 102.075 56.566 101.742 55.8548 101.669C55.7286 101.656 55.6008 101.656 55.4731 101.661L55.4717 101.659Z" fill="#B5A8A1"/>
<path d="M12.4644 99.4508C12.4644 99.4508 12.3788 101.17 12.4644 102.538C12.5501 103.905 12.7852 106.081 12.7852 106.081L18.7301 104.748L16.9115 100.224L12.463 99.4523L12.4644 99.4508Z" fill="black"/>
<path d="M60.3425 110.44L61.1103 113.722H67.0145L65.3019 109.77L60.3425 110.44Z" fill="black"/>
<path d="M67.0204 84.6497L68.0741 88.7226L63.45 90.6732L61.1104 86.1999L67.0204 84.6497Z" fill="black"/>
<path d="M100.938 99.0724C100.972 99.2121 102.267 105.246 102.267 105.246L106.988 103.633L105.869 98.7579L100.938 99.0738V99.0724Z" fill="black"/>
</svg>
