<?xml version="1.0" encoding="utf-8"?>
<!-- Generator: Adobe Illustrator 26.5.0, SVG Export Plug-In . SVG Version: 6.00 Build 0)  -->
<svg version="1.1" id="Calque_1" xmlns="http://www.w3.org/2000/svg" xmlns:xlink="http://www.w3.org/1999/xlink" x="0px" y="0px"
	 viewBox="0 0 130 130" style="enable-background:new 0 0 130 130;" xml:space="preserve">
<style type="text/css">
	.st0{clip-path:url(#SVGID_00000034081903036882536110000009914155909342738849_);}
	.st1{fill:#FFA726;}
	.st2{fill:#D9A25F;}
	.st3{fill:#BF8415;}
	.st4{fill:#00062B;}
</style>
<g>
	<defs>
		<rect id="SVGID_1_" width="130" height="130"/>
	</defs>
	<clipPath id="SVGID_00000129918069014746701340000001699307125801412263_">
		<use xlink:href="#SVGID_1_"  style="overflow:visible;"/>
	</clipPath>
	<g style="clip-path:url(#SVGID_00000129918069014746701340000001699307125801412263_);">
		<path class="st1" d="M90,16.3l11.9-7c0.6,0.9,1.2,1.8,1.8,2.7l-12,7.2C91.1,18.1,90.6,17.2,90,16.3z"/>
		<path class="st2" d="M8.4,68.5c1.4-20.1,8.8-41.3,18.5-56.7c0.6-0.9,1.2-1.8,1.8-2.7l7.1,4.2l4.8,2.9C40,17.1,39.4,18,38.9,19
			c-9.1,16.5-19,47.5-9.7,69.4C35,102.2,50,109.1,65,109.2c15.1,0,30.1-6.9,36-20.6c9.5-21.8-0.1-53-9.1-69.5
			c-0.5-1-1.1-1.9-1.6-2.8l4.8-2.8l7.1-4.2c0.6,0.9,1.2,1.8,1.7,2.7c9.6,15.5,16.9,36.7,18.1,56.9c0,0.2,0,0.3,0,0.5
			c0,47.7-34.8,60.6-56.5,60.5h-0.5h-0.5C42.7,129.9,8,116.8,8.4,69C8.4,68.9,8.4,68.7,8.4,68.5L8.4,68.5z"/>
		<path class="st3" d="M20.7,62.1c0-0.2,0-0.3,0-0.5c1.6-17.4,7.6-35.4,15-48.3l4.8,2.9C40,17.1,39.4,18,38.9,19
			c-9.1,16.5-19,47.5-9.7,69.4C35,102.2,50,109.1,65,109.2c15.1,0,30.1-6.9,36-20.6c9.5-21.8-0.1-53-9.1-69.5
			c-0.5-1-1.1-1.9-1.6-2.8l4.8-2.8c7.4,13,13.2,31,14.6,48.4c0,0.2,0,0.3,0,0.5c1.4,44-26.6,56.3-44.2,56.3H65h-0.4
			C46.9,118.6,19.1,106.1,20.7,62.1z"/>
		<path class="st2" d="M26.4,8.7L27.2,7l3.2-7l11.7,5.9l5.8,2.9l-6.3,8.8L26.4,8.7z"/>
		<path class="st2" d="M82.4,8.8l5.9-3L99.9,0l3.2,7l0.8,1.7l-15.2,8.9L82.4,8.8z"/>
		<path class="st3" d="M60.1,120.3c0-2.6,2.1-4.7,4.7-4.7c2.6,0,4.7,2.1,4.7,4.7c0,2.6-2.1,4.7-4.7,4.7
			C62.2,125.1,60.1,122.9,60.1,120.3z"/>
		<path class="st3" d="M101.3,100.9c0-2.6,2.1-4.7,4.7-4.7c2.6,0,4.7,2.1,4.7,4.7c0,2.6-2.1,4.7-4.7,4.7
			C103.4,105.7,101.3,103.5,101.3,100.9z"/>
		<path class="st3" d="M18.9,100.9c0-2.6,2.1-4.7,4.7-4.7s4.7,2.1,4.7,4.7c0,2.6-2.1,4.7-4.7,4.7S18.9,103.5,18.9,100.9z"/>
		<path class="st3" d="M108.7,61.3c0-2.6,2.1-4.7,4.7-4.7s4.7,2.1,4.7,4.7c0,2.6-2.1,4.7-4.7,4.7S108.7,63.9,108.7,61.3z"/>
		<path class="st3" d="M11.5,61.3c0-2.6,2.1-4.7,4.7-4.7c2.6,0,4.7,2.1,4.7,4.7c0,2.6-2.1,4.7-4.7,4.7C13.6,66,11.5,63.9,11.5,61.3z
			"/>
		<path class="st3" d="M22.3,23.8c0-2.6,2.1-4.7,4.7-4.7c2.6,0,4.7,2.1,4.7,4.7c0,2.6-2.1,4.7-4.7,4.7
			C24.4,28.6,22.3,26.5,22.3,23.8z"/>
		<path class="st3" d="M98.5,23.8c0-2.6,2.1-4.7,4.7-4.7s4.7,2.1,4.7,4.7c0,2.6-2.1,4.7-4.7,4.7S98.5,26.5,98.5,23.8z"/>
		<path class="st4" d="M53.9,81.1v-0.8l3.1-1c2-0.7,3-2.1,3-4.1V36.5l-6.5,0.9v-1c3.1-0.6,6.2-1.5,9-2.7c2.9-1.2,5.7-2.5,8.2-4.1
			l1,0.7l-0.3,11.4v33.5c0,2.1,1,3.4,3,4l3.3,1v0.8H53.9z"/>
	</g>
</g>
</svg>
