<svg width="222" height="40" viewBox="0 0 222 40" fill="none" xmlns="http://www.w3.org/2000/svg">
<path d="M42.7347 31.1159V30.7864L43.3302 30.5542C43.7687 30.3814 44.0718 30.1599 44.2396 29.8953C44.402 29.6306 44.4886 29.2795 44.4886 28.8421V11.6453C44.4886 11.1862 44.4074 10.8189 44.2396 10.5597C44.0718 10.295 43.7741 10.0898 43.3302 9.93316L42.7347 9.70092V9.37146H52.2133C54.8983 9.37146 56.8362 9.86295 58.0272 10.8351C59.2181 11.8127 59.8081 13.0495 59.8081 14.5402C59.8081 15.6582 59.3751 16.679 58.5035 17.5864C57.632 18.4992 56.1434 19.1419 54.0268 19.5145C56.4465 19.7792 58.222 20.4111 59.3426 21.4103C60.4631 22.4095 61.0261 23.6247 61.0261 25.0506C61.0261 25.7527 60.8691 26.4602 60.566 27.1732C60.2574 27.8861 59.7323 28.5396 58.9961 29.1337C58.2599 29.7278 57.2531 30.2031 55.9755 30.565C54.698 30.9269 53.0795 31.1105 51.1199 31.1105H42.7347V31.1159ZM49.3714 19.4875H50.7896C52.262 19.4875 53.3285 19.1473 53.9781 18.4667C54.6276 17.7862 54.9524 16.598 54.9524 14.9075C54.9524 13.217 54.6547 11.8991 54.0592 11.1538C53.4638 10.4085 52.4948 10.0358 51.1523 10.0358H49.3714V19.4929V19.4875ZM49.3714 30.457H51.0224C52.6735 30.457 53.9023 30.0195 54.7034 29.1391C55.5046 28.2588 55.9106 26.8869 55.9106 25.0236C55.9106 23.2682 55.5262 22.0152 54.7521 21.2699C53.9835 20.5245 52.7168 20.1519 50.952 20.1519H49.366V30.4624L49.3714 30.457Z" fill="white"/>
<path d="M62.1845 31.1159V30.7865L62.5797 30.6568C63.37 30.3922 63.7706 29.8467 63.7706 29.0095V11.3807C63.7706 10.9432 63.684 10.6083 63.5054 10.3761C63.3267 10.1438 63.0236 9.9764 62.5797 9.86298L62.1521 9.76576V9.4363L68.1933 8.02124L68.5884 8.3183L68.4585 12.9308V24.1972C68.4585 25.0074 68.4585 25.8175 68.4747 26.6169C68.4856 27.4216 68.491 28.2156 68.491 29.0041C68.491 29.4416 68.5776 29.7981 68.7562 30.0735C68.9349 30.349 69.2272 30.5488 69.6494 30.6838L70.0771 30.7811V31.1105H62.1845V31.1159Z" fill="white"/>
<path d="M76.0208 31.6128C74.7433 31.6128 73.6715 31.2509 72.7999 30.5272C71.9284 29.8034 71.4953 28.7611 71.4953 27.4C71.4953 26.3684 72.0258 25.4178 73.0814 24.5483C74.137 23.6787 75.7989 23.0252 78.067 22.5877C78.4189 22.5229 78.8141 22.4527 79.2579 22.3717C79.6964 22.2961 80.162 22.215 80.6437 22.1232V19.5199C80.6437 18.0293 80.4597 16.9761 80.097 16.3712C79.7343 15.7662 79.1659 15.4638 78.3972 15.4638C77.8667 15.4638 77.4499 15.6366 77.1414 15.9769C76.8328 16.3171 76.6325 16.9059 76.5459 17.7376L76.4809 18.0995C76.4376 19.0447 76.2049 19.736 75.788 20.1735C75.3712 20.6109 74.8516 20.8324 74.2344 20.8324C73.6606 20.8324 73.1897 20.6596 72.8162 20.3031C72.4427 19.952 72.2532 19.4767 72.2532 18.888C72.2532 17.9861 72.5672 17.2299 73.1951 16.6142C73.823 15.9985 74.6513 15.5394 75.6906 15.2315C76.7245 14.9237 77.8451 14.7725 79.0577 14.7725C81.0173 14.7725 82.5275 15.2477 83.5994 16.2037C84.6658 17.1597 85.2017 18.7152 85.2017 20.8648V28.1453C85.2017 29.1337 85.6618 29.6306 86.5875 29.6306H87.3129L87.6106 29.8953C87.1938 30.4246 86.7336 30.8296 86.241 31.1159C85.7484 31.4021 85.0447 31.5426 84.1461 31.5426C83.1771 31.5426 82.4139 31.3157 81.8509 30.8674C81.2879 30.4192 80.9198 29.8196 80.7466 29.0743C80.0862 29.7764 79.4095 30.376 78.7166 30.8674C78.0237 31.3643 77.1251 31.6074 76.0262 31.6074L76.0208 31.6128ZM78.0345 29.6036C78.473 29.6036 78.8898 29.501 79.2742 29.2904C79.6585 29.0797 80.1186 28.7557 80.6437 28.3182V22.7821C80.4218 22.8254 80.2053 22.8686 79.9833 22.9118C79.7614 22.955 79.507 22.9982 79.2255 23.0414C78.2132 23.306 77.4012 23.7489 76.8003 24.3754C76.194 25.002 75.8909 25.8391 75.8909 26.8977C75.8909 27.7997 76.102 28.4748 76.5188 28.9231C76.9357 29.3714 77.4445 29.5982 78.04 29.5982L78.0345 29.6036Z" fill="white"/>
<path d="M96.4883 31.6128C94.9889 31.6128 93.6301 31.2887 92.4121 30.6406C91.1888 29.9925 90.2198 29.0473 89.5052 27.8051C88.7907 26.5628 88.4334 25.0452 88.4334 23.2412C88.4334 21.4373 88.8232 19.9412 89.6081 18.6774C90.3876 17.4135 91.4378 16.4468 92.7424 15.777C94.0524 15.1073 95.4869 14.7725 97.0513 14.7725C98.3288 14.7725 99.4061 14.9831 100.288 15.399C101.171 15.8149 101.842 16.3604 102.302 17.0301C102.762 17.6998 102.995 18.3965 102.995 19.1203C102.995 19.736 102.806 20.2113 102.432 20.5515C102.059 20.8918 101.571 21.0646 100.981 21.0646C100.343 21.0646 99.8229 20.8324 99.4277 20.3733C99.0325 19.9142 98.7998 19.3093 98.7348 18.564C98.7132 18.0833 98.724 17.6674 98.7673 17.3271C98.8106 16.9869 98.8106 16.6412 98.7673 16.2901C98.6807 15.9175 98.5399 15.669 98.3559 15.5502C98.1664 15.4314 97.912 15.3666 97.5818 15.3666C96.2393 15.3666 95.2 15.9499 94.4638 17.1111C93.7276 18.2777 93.3595 20.1303 93.3595 22.6795C93.3595 24.8993 93.7709 26.5953 94.5991 27.7673C95.4273 28.9447 96.694 29.528 98.4154 29.528C99.4494 29.528 100.288 29.3444 100.927 28.9663C101.566 28.5936 102.183 28.0319 102.779 27.2866L103.109 27.5512C102.557 28.8475 101.712 29.8467 100.565 30.5488C99.4169 31.2509 98.0636 31.602 96.5046 31.602L96.4883 31.6128Z" fill="white"/>
<path d="M103.986 31.1159V30.7865L104.484 30.619C105.231 30.376 105.604 29.8413 105.604 29.0041V11.3807C105.604 10.9432 105.518 10.6137 105.339 10.3923C105.16 10.1708 104.857 9.99801 104.413 9.86298L103.986 9.76576V9.4363L110.027 8.02124L110.422 8.3183L110.325 12.9308V29.0095C110.325 29.8899 110.687 30.4354 111.413 30.6568L111.873 30.7865V31.1159H103.98H103.986ZM116.236 31.1159L110.357 22.8794L116.463 17.2461C116.75 16.9815 116.918 16.7006 116.977 16.4036C117.032 16.1065 116.842 15.8905 116.398 15.7609L115.835 15.5934V15.264H120.756V15.5934L119.765 15.8581C119.284 16.0147 118.888 16.193 118.591 16.4036C118.293 16.6142 117.936 16.9059 117.519 17.2786L113.822 20.7406L119.733 28.9447C120.085 29.4308 120.415 29.8035 120.723 30.0627C121.032 30.3274 121.427 30.5488 121.914 30.7216L122.044 30.7865V31.1159H116.23H116.236Z" fill="white"/>
<path d="M130.337 31.1159V30.7864L130.998 30.5542C131.745 30.3111 132.118 29.6846 132.118 28.6746V11.8127C132.118 11.3752 132.07 11.0241 131.972 10.7595C131.875 10.4948 131.615 10.2788 131.198 10.1006L130.337 9.70629V9.37683H136.709L142.82 25.3206L148.564 9.37683H155.071V9.70629L154.54 9.90613C154.123 10.0628 153.836 10.2734 153.679 10.5488C153.528 10.8243 153.447 11.1808 153.447 11.6182V28.8474C153.447 29.2849 153.501 29.6252 153.609 29.8682C153.717 30.1113 153.982 30.3165 154.399 30.4947L155.06 30.7918V31.1213H146.837V30.7918L147.53 30.4947C147.947 30.3219 148.212 30.1113 148.32 29.8682C148.428 29.6252 148.483 29.2849 148.483 28.8474V21.4319L148.548 12.0071L141.646 31.1159H139.995L132.795 12.2394L132.892 20.4435V28.7448C132.892 29.2309 132.963 29.6198 133.109 29.9168C133.255 30.2139 133.531 30.4299 133.953 30.5596L134.679 30.7918V31.1213H130.321L130.337 31.1159Z" fill="white"/>
<path d="M163.954 31.6128C162.281 31.6128 160.825 31.2671 159.596 30.5758C158.362 29.8844 157.409 28.9014 156.738 27.6268C156.067 26.3522 155.731 24.8615 155.731 23.144C155.731 21.4265 156.088 19.9466 156.803 18.699C157.517 17.4513 158.497 16.4791 159.742 15.7986C160.987 15.1181 162.389 14.7778 163.954 14.7778C165.518 14.7778 166.915 15.1127 168.149 15.7824C169.383 16.4521 170.358 17.4135 171.072 18.6666C171.787 19.9196 172.144 21.4103 172.144 23.1494C172.144 24.8885 171.808 26.3846 171.137 27.6484C170.466 28.9122 169.519 29.8898 168.295 30.5812C167.072 31.2725 165.626 31.6182 163.954 31.6182V31.6128ZM163.954 30.9538C164.722 30.9538 165.339 30.7324 165.805 30.2949C166.265 29.8574 166.601 29.0743 166.812 27.9563C167.023 26.8383 167.126 25.2558 167.126 23.2142C167.126 21.1726 167.023 19.5577 166.812 18.4397C166.601 17.3217 166.265 16.5386 165.805 16.1011C165.345 15.6636 164.728 15.4422 163.954 15.4422C163.18 15.4422 162.562 15.6636 162.086 16.1011C161.61 16.5386 161.274 17.3217 161.063 18.4397C160.852 19.5577 160.749 21.151 160.749 23.2142C160.749 25.2774 160.852 26.8383 161.063 27.9563C161.274 29.0743 161.615 29.8574 162.086 30.2949C162.557 30.7324 163.18 30.9538 163.954 30.9538V30.9538Z" fill="white"/>
<path d="M179.436 31.6128C178.575 31.6128 177.79 31.4453 177.075 31.1159C176.361 30.7864 175.798 30.2517 175.392 29.5172C174.986 28.7826 174.791 27.8105 174.813 26.6006L174.91 18.1319C174.91 17.6242 174.823 17.2623 174.645 17.0463C174.466 16.8248 174.196 16.6736 173.817 16.5872L173.421 16.4576V16.1281L179.333 14.9723L179.663 15.3018L179.495 19.979V27.9185C179.495 28.6206 179.701 29.1391 180.107 29.4686C180.513 29.798 181.027 29.9655 181.644 29.9655C182.261 29.9655 182.813 29.8791 183.295 29.7008C183.777 29.5226 184.264 29.2633 184.746 28.9123L184.876 18.1697C184.876 17.662 184.8 17.3055 184.643 17.1003C184.486 16.8896 184.205 16.7438 183.782 16.6574L183.452 16.5602V16.2307L189.228 14.9777L189.558 15.3072L189.461 19.9844V28.9123C189.461 29.3984 189.526 29.771 189.661 30.0303C189.791 30.2949 190.078 30.5164 190.522 30.6892L190.852 30.7864V31.1159L185.076 31.4453L184.778 29.501C184.053 30.0951 183.263 30.592 182.418 31.0025C181.574 31.4129 180.572 31.6128 179.43 31.6128H179.436Z" fill="white"/>
<path d="M192.184 31.116V30.7865L192.644 30.6569C193.413 30.4354 193.797 29.9007 193.797 29.042V18.7315C193.797 18.2508 193.721 17.8889 193.564 17.6621C193.407 17.4298 193.115 17.2732 192.671 17.1868L192.173 17.0571V16.7277L197.819 14.8157L198.149 15.1452L198.414 17.122C199.183 16.4414 200.055 15.8797 201.024 15.4422C201.993 15.0048 202.951 14.7833 203.898 14.7833C205.349 14.7833 206.469 15.1776 207.249 15.9715C208.028 16.7601 208.424 17.9699 208.424 19.5956V29.0852C208.424 29.9439 208.84 30.4786 209.679 30.7001L209.977 30.7973V31.1268H202.182V30.7973L202.61 30.6677C203.378 30.4246 203.763 29.8899 203.763 29.0528V18.5424C203.763 17.1382 203.059 16.436 201.652 16.436C200.683 16.436 199.627 16.9221 198.479 17.8835V29.0852C198.479 29.9439 198.864 30.4786 199.632 30.7001L199.93 30.7973V31.1268H192.173L192.184 31.116Z" fill="white"/>
<path d="M217.377 31.6129C215.97 31.6129 214.871 31.2618 214.091 30.5597C213.312 29.8575 212.917 28.7341 212.917 27.2002V15.9284H210.638V15.5989L211.428 15.4693C212.11 15.318 212.7 15.0966 213.193 14.8104C213.691 14.5241 214.178 14.1406 214.66 13.6545L217.366 10.657H217.696L217.599 15.2694H221.296V15.9284H217.567V27.789C217.567 28.5559 217.734 29.1392 218.081 29.5335C218.422 29.9278 218.855 30.1276 219.385 30.1276C219.846 30.1276 220.257 30.0142 220.609 29.7819C220.961 29.5497 221.313 29.2364 221.664 28.8422L221.995 29.1716C221.556 29.917 220.95 30.5111 220.181 30.9485C219.412 31.386 218.476 31.6075 217.372 31.6075L217.377 31.6129Z" fill="white"/>
<path d="M28.7832 0.999908C28.4043 1.99909 28.1391 2.68502 27.8359 3.47897C29.7576 2.5662 30.981 2.73903 31.479 2.78764C30.797 3.91645 30.1961 4.80221 29.7306 5.73659C29.579 6.04444 29.6223 6.63315 29.8551 6.86539C31.203 8.22105 31.7226 9.76573 31.9121 11.5751C32.1503 13.8435 32.8594 16.0741 33.2113 18.3371C33.3683 19.3525 33.352 20.4651 33.0543 21.4427C32.605 22.9172 30.6508 23.7219 29.1351 23.2358C28.1445 22.9172 27.5274 22.3393 27.6952 21.2807C27.9767 19.5145 27.3054 18.3317 25.5569 17.4838C24.7883 17.1111 23.933 16.8464 23.2401 16.382C22.5201 15.8959 21.9517 15.2315 21.2696 14.5996C20.6471 15.1991 20.6309 16.0633 21.2913 16.9005C21.8705 17.6296 22.5309 18.3209 23.2455 18.942C27.2459 22.4473 28.0416 26.5952 26.3798 31.2617C25.2321 34.4861 23.3321 37.2406 20.1924 39.5198C20.5713 36.9382 19.0827 35.3125 17.3017 33.8704C14.6113 31.683 11.7261 29.6792 9.15479 27.3838C4.49939 23.2304 3.41674 17.9158 5.87977 12.6769C8.4673 7.19486 14.5356 3.25213 20.6038 3.45196C22.5851 3.51677 24.2036 3.23052 25.8005 2.24214C26.6071 1.74525 27.457 1.32937 28.7832 0.994507V0.999908Z" fill="white"/>
<path d="M3.49791 13.2333H12.0292C12.0292 14.5673 10.9411 15.6529 9.60406 15.6529H1.06736C1.06736 14.3189 2.15542 13.2333 3.4925 13.2333H3.49791Z" fill="#D9A25F"/>
<path d="M3.41131 18.6613H14.1945C14.1945 19.9953 13.1064 21.0809 11.7694 21.0809H0.986176C0.986176 19.7469 2.07424 18.6613 3.41131 18.6613Z" fill="#D9A25F"/>
<path d="M3.49791 24.0892H17.9838C17.9838 25.4233 16.8957 26.5089 15.5586 26.5089H1.06736C1.06736 25.1748 2.15542 24.0892 3.4925 24.0892H3.49791Z" fill="#D9A25F"/>
</svg>
