<svg width="17" height="17" viewBox="0 0 17 17" fill="none" xmlns="http://www.w3.org/2000/svg">
<circle cx="8.01379" cy="8.00549" r="8" fill="white"/>
<path d="M11.3721 2.20713C11.2541 2.51836 11.1715 2.73201 11.0771 2.97931C11.6756 2.695 12.0567 2.74883 12.2118 2.76398C11.9994 3.11558 11.8122 3.39148 11.6672 3.68252C11.62 3.77842 11.6335 3.96179 11.706 4.03413C12.1258 4.45639 12.2877 4.93753 12.3467 5.50111C12.4209 6.20769 12.6418 6.90249 12.7514 7.60738C12.8003 7.92366 12.7952 8.27021 12.7025 8.57471C12.5626 9.03399 11.9539 9.28465 11.4817 9.13324C11.1732 9.03399 10.981 8.85398 11.0332 8.52424C11.1209 7.97412 10.9118 7.6057 10.3672 7.34157C10.1278 7.22549 9.86136 7.14306 9.64554 6.99838C9.42128 6.84697 9.24424 6.64004 9.03178 6.44321C8.83788 6.62995 8.83282 6.89912 9.03853 7.15988C9.21894 7.38699 9.42465 7.60233 9.64722 7.7958C10.8933 8.88763 11.1411 10.1796 10.6235 11.6332C10.266 12.6375 9.6742 13.4955 8.69624 14.2054C8.81427 13.4013 8.35058 12.8949 7.79584 12.4457C6.95783 11.7644 6.05912 11.1403 5.25821 10.4253C3.80813 9.13156 3.4709 7.47616 4.23809 5.84431C5.04407 4.13675 6.93423 2.90865 8.82439 2.9709C9.44152 2.99109 9.94567 2.90193 10.4431 2.59406C10.6943 2.43929 10.959 2.30975 11.3721 2.20544V2.20713Z" fill="#00062B"/>
<path d="M3.49615 6.01764H6.1535C6.1535 6.43317 5.81459 6.77132 5.39811 6.77132H2.73907C2.73907 6.35579 3.07799 6.01764 3.49446 6.01764H3.49615Z" fill="#D9A25F"/>
<path d="M3.4692 7.70837H6.82798C6.82798 8.12391 6.48907 8.46205 6.07259 8.46205H2.71381C2.71381 8.04652 3.05272 7.70837 3.4692 7.70837Z" fill="#D9A25F"/>
<path d="M3.49615 9.39911H8.00826C8.00826 9.81464 7.66934 10.1528 7.25287 10.1528H2.73907C2.73907 9.73726 3.07799 9.39911 3.49446 9.39911H3.49615Z" fill="#D9A25F"/>
</svg>
